<svg width="940" height="1371" viewBox="0 0 940 1371" fill="none" xmlns="http://www.w3.org/2000/svg">
<rect x="529.915" y="849.132" width="262.866" height="324.125" fill="white"/>
<path fill-rule="evenodd" clip-rule="evenodd" d="M453.244 532.102C481.58 510.497 552.718 500.781 582.96 521.584C612.83 542.474 616.087 576.256 630.006 607.333C643.139 601.132 664.827 610.013 668.634 622.215C673.357 627.969 673.569 644.138 676.825 651.875C818.523 674.459 840.035 785.074 857.091 910.653C879.653 1038.08 930.873 1165.24 908.638 1296.36C911.535 1300.56 913.819 1304.64 915.931 1309.49C920.992 1318.11 914.473 1330.32 904.265 1329.84C891.052 1328.68 877.969 1327.09 864.694 1326.6C827.893 1325.32 791.059 1325.47 754.244 1325.94L749.224 1326.01C563.687 1328.32 378.161 1332.88 192.617 1334.08C185.885 1334.09 182.59 1328.05 183.489 1322.09C185.299 1310.08 186.978 1298.07 188.731 1286.06C144.845 1297.67 98.1901 1300.59 54.4281 1287.28C51.3667 1284.16 61.5611 1285.85 63.1784 1285.38C22.9037 1257.82 34.9312 1199.77 38.4989 1157.96C60.6829 1014.68 68.5035 856.164 154.215 733.908C191.295 684.016 245.658 644.514 308.125 635.625L309.858 635.388C328.123 632.949 348.48 632.164 364.449 622.215C382.411 607.857 390.065 581.329 408.961 581.081C415.2 580.998 423.688 588.902 432.822 594.268C433.504 582.464 439.858 572.501 441.26 563.348L441.374 562.566C442.838 551.895 440.833 542.294 453.244 532.102ZM757.765 914.438C717.944 886.738 615.079 900.656 612.724 902.207C607.539 905.622 605.306 905.924 602.502 910.358C599.733 910.726 596.967 911.108 594.203 911.501C588.657 913.315 592.766 920.144 599.172 917.708C595.319 934.344 606.657 946.175 611.171 962.622C612.636 967.963 611.223 977.567 611.171 983.023C611.608 989.98 619.29 998.198 618.01 1005.18C613.458 1029.99 588.758 1054.2 599.172 1078.26C606.071 1091.85 626.82 1098.78 640.615 1103.4C669.196 1114.39 718.996 1102.99 735.603 1078.26C744.461 1065.07 754.723 1031.8 760.004 1021.48L761.175 1005.11C764.062 964.413 766.629 920.604 757.765 914.438Z" fill="#FFE2CD"/>
<path fill-rule="evenodd" clip-rule="evenodd" d="M407.487 581.154L418.883 588.157L485.069 620.916C497.899 624.514 504.315 628.825 504.315 633.85V685.019C504.315 691.867 516.356 707.386 540.437 731.577L562.685 709.369L562.188 706.461C560.071 693.933 559.012 685.552 559.012 681.319C559.012 676.767 580.778 659.485 624.31 629.475L643.355 611.521L641.324 605.338C653.067 605.894 665.801 613.135 668.634 622.214C673.357 627.969 673.569 644.138 676.825 651.875C818.523 674.459 840.035 785.074 857.091 910.653C879.653 1038.08 930.873 1165.24 908.638 1296.36C911.535 1300.56 913.819 1304.64 915.931 1309.49C920.992 1318.11 914.473 1330.32 904.265 1329.84C891.052 1328.68 877.969 1327.09 864.694 1326.6C827.893 1325.32 791.059 1325.47 754.244 1325.94L749.224 1326.01C563.687 1328.32 378.161 1332.88 192.617 1334.08C185.885 1334.09 182.59 1328.05 183.489 1322.09C185.299 1310.08 186.978 1298.07 188.731 1286.06C144.845 1297.67 98.1901 1300.59 54.4281 1287.28C51.3667 1284.16 61.5611 1285.85 63.1784 1285.38C22.9037 1257.82 34.9312 1199.77 38.4989 1157.96C60.6829 1014.68 68.5035 856.164 154.215 733.908C191.295 684.015 245.658 644.514 308.125 635.625L309.858 635.388L311.604 635.16C329.411 632.89 348.987 631.848 364.449 622.214C381.937 608.236 389.653 582.721 407.487 581.154ZM566.076 881.494C559.585 881.494 546.29 891.588 526.192 911.776L524.422 912.595C500.127 923.895 484.032 933.696 476.138 942L475.856 942.3C467.881 950.867 452.088 973.647 428.477 1010.64L394.285 1030.89H381.348L372.137 1097.79L394.285 1145.55L444.452 1128.63L526.192 1107.06L573.097 1059.41L599.556 1050.52C596.346 1059.8 595.182 1069.04 599.172 1078.26C606.071 1091.85 626.82 1098.78 640.615 1103.4C669.196 1114.39 718.997 1102.99 735.603 1078.26C744.461 1065.07 754.723 1031.8 760.004 1021.48L761.519 1000.21C764.249 960.968 766.275 920.357 757.765 914.438C717.944 886.738 615.079 900.656 612.724 902.207C607.539 905.622 605.306 905.924 602.502 910.358L601.05 910.553L609.214 899.467L606.323 897.922C585.698 886.97 572.282 881.494 566.076 881.494ZM599.172 917.707C595.483 933.635 605.718 945.158 610.558 960.543L598.191 936.838L598.191 918.015C598.511 917.936 598.838 917.834 599.172 917.707Z" fill="#FFCF77"/>
<path fill-rule="evenodd" clip-rule="evenodd" d="M402.022 578.68C404.772 576.243 408.84 579.306 407.093 582.599C403.167 590 399.14 597.012 393.871 603.554C390.677 607.521 387.255 611.272 383.787 614.982C392.687 622.691 400.319 632.262 407.526 641.232C416.743 652.704 425.456 664.662 435.802 675.159C446.006 685.512 457.288 692.749 470.929 697.575L473.684 698.533C487.388 703.35 502.034 709.856 509.758 722.847C511.282 725.409 508.215 728.575 505.636 726.976C492.214 718.654 476.443 716.981 461.833 711.482C447.72 706.171 435.417 697.996 424.546 687.564C413.694 677.148 404.582 665.298 395.078 653.698C385.679 642.229 375.559 632.432 364.442 622.728C347.286 634.284 327.703 639.313 307.791 644.252L305.617 644.791C285.681 649.733 265.851 655.473 247.147 664.079C230.657 671.666 214.437 680.727 201.004 693.074C186.745 706.177 175.648 722.912 165.49 739.278C142.769 775.892 126.795 816.006 112.732 856.606C98.1055 898.837 85.8713 941.913 75.9949 985.501C70.9717 1007.67 66.8921 1030 63.5391 1052.49C61.9252 1063.32 60.4915 1074.17 59.2323 1085.05C57.8881 1096.66 57.5793 1108.61 54.0209 1119.78C52.4953 1124.56 48.8933 1126.55 45.2877 1126.38L44.5554 1135.55C43.5843 1147.78 42.6791 1160.01 42.3733 1172.31C41.866 1192.77 42.096 1213.17 43.5656 1233.58L43.7737 1236.36C44.9285 1251.26 47.5089 1268 58.6974 1278.91C70.2841 1290.21 88.1028 1293.76 103.72 1293.96C140.093 1294.44 175.106 1277.23 207.292 1262.13C240.441 1246.59 272.684 1229.33 304.155 1210.61C320.181 1201.08 336.035 1191.23 351.686 1181.09C359.367 1176.12 366.993 1171.06 374.563 1165.92C378.898 1162.97 383.006 1159.74 387.42 1157.13C385.257 1155.12 384.292 1151.95 386.103 1149.18C373.345 1138.09 368.035 1118.3 367.414 1102.29C366.912 1089.36 368.812 1076.47 370.311 1063.67C371.067 1057.22 372.002 1050.77 372.972 1044.34C373.355 1041.8 373.648 1039.09 374.095 1036.41C339.644 1055.37 304.227 1072.25 267.872 1087.25C249.237 1094.93 230.364 1101.85 211.23 1108.18L207.352 1109.46C189.222 1115.4 170.659 1121.01 151.916 1124.41C150.914 1124.59 150.1 1123.11 151.17 1122.64C169.435 1114.57 188.333 1107.76 206.872 1100.33L209.919 1099.09V1099.09C209.569 1099.07 209.206 1099.02 208.827 1098.93C197.954 1096.3 187.167 1092.25 176.503 1088.84C166.606 1085.68 155.486 1083.69 146.235 1078.91C145.524 1078.55 145.922 1077.56 146.615 1077.51C157.013 1076.79 168.3 1079.82 178.494 1081.61L182.324 1082.28C188.74 1083.41 195.297 1084.63 201.682 1086.22C201.912 1084.08 203.107 1081.93 204.807 1080.66C223.514 1066.79 221.615 1038.78 223.615 1018.12L225.099 1002.78C227.709 975.932 230.469 949.092 234.664 922.449C234.888 921.026 237.086 921.434 237.095 922.777C237.311 955.804 234.821 988.679 233.573 1021.65L233.38 1027.06C232.69 1047.41 232.149 1068.54 219.351 1084.2C221.141 1083.15 223.56 1083.15 225.01 1084.88C226.792 1087 227.82 1089.38 227.788 1091.72C239.353 1086.87 250.867 1081.88 262.326 1076.8C299.165 1060.46 335.231 1042.17 370.344 1022.38C374.123 1020.26 377.715 1021.93 379.583 1024.74L379.853 1024.7C379.898 1024.69 379.944 1024.69 379.991 1024.69L380.258 1024.67C380.269 1024.67 380.279 1024.68 380.288 1024.68C385.231 1021.96 391.965 1023.89 396.206 1027.86C396.331 1027.98 396.438 1028.11 396.549 1028.23C401.919 1025.82 406.933 1022.56 411.483 1018.43C420.795 1009.98 428.682 999.533 435.558 989.055C448.22 969.757 458.976 948.297 476.081 932.411C489.978 919.505 507.208 911.47 525.284 906.425C525.208 905.896 525.41 905.333 525.775 904.958C526.704 904.006 527.366 903.676 528.565 904.254C528.661 904.301 528.718 904.365 528.757 904.434L530.521 901.417C531.484 899.779 532.472 898.13 532.815 897.697C534.867 895.109 536.979 892.542 539.124 890.028C542.759 885.772 546.902 881.572 551.699 878.62C562.202 872.16 573.243 875.816 584.042 879.347C590.566 881.481 597.069 883.685 603.582 885.851L604.254 886.071C609.111 887.633 614.794 889 616.965 894.152C617.825 896.191 617.958 898.307 617.558 900.36C663.684 888.614 714.917 894.011 759.929 907.799C761.657 908.327 763.382 909.75 763.746 911.619C768.903 938.102 771.2 965.261 768.866 992.195C766.853 1015.44 761.708 1038.23 752.013 1059.51L751.462 1060.72C742.351 1080.44 727.91 1104.76 705.855 1110.94C692.539 1114.68 677.81 1112.47 664.228 1111.79C651.029 1111.13 637.537 1111.03 624.462 1108.95C612.818 1107.1 602.616 1101.87 595.42 1092.39C589.212 1084.21 585.943 1074.33 583.265 1064.5C582.039 1064.89 580.821 1065.3 579.622 1065.77C574.564 1067.75 570.277 1070.94 566.402 1074.7C558.219 1082.64 551.871 1092.27 543.309 1099.85C535.558 1106.7 526.727 1112.03 517.253 1116.13C497.623 1124.62 476.564 1128.02 455.799 1132.52L454.351 1132.83C438.719 1136.27 422.764 1140.49 408.966 1148.64C408.696 1151.03 407.605 1153.29 405.855 1154.77C408.289 1157.06 409.319 1160.68 407.181 1164.08C401.208 1173.57 390.918 1178.97 381.681 1185.04L381.08 1185.44C371.994 1191.47 362.828 1197.39 353.587 1203.18C334.802 1214.95 315.624 1226.08 296.176 1236.72C264.895 1253.83 232.942 1269.97 200.411 1284.61C202.363 1294.23 201.65 1304.15 203.118 1313.83L203.343 1315.21C203.97 1318.81 203.123 1321.81 200.651 1324.16L200.389 1324.4L200.394 1324.37L200.162 1324.58L200.084 1324.65L200.11 1324.63C199.825 1324.89 199.531 1325.13 199.232 1325.34L198.85 1325.59V1325.59C196.469 1327.04 193.403 1327.02 190.966 1325.74L190.687 1325.59L190.219 1325.32C186.998 1323.46 184.777 1318.87 186.113 1315.21C189.397 1306.24 190.638 1296.66 193.671 1287.63L191.265 1288.71V1288.71L188.093 1290.09C153.797 1304.94 115.7 1317.44 78.332 1307.32C61.8208 1302.85 46.3886 1293.38 38.1272 1277.96C29.9979 1262.78 28.8488 1245.15 28.4172 1228.27C27.8846 1207.43 29.0004 1186.27 31.745 1165.61C33.5873 1151.74 35.8154 1137.61 39.2521 1123.89C37.4844 1122.33 36.185 1120.09 35.8418 1117.31C34.2198 1104.2 37.0585 1090.57 38.7964 1077.53C40.4942 1064.8 42.3698 1052.09 44.4911 1039.42C48.7739 1013.84 53.75 988.31 59.5434 963.026C69.8537 918.027 83.4688 873.828 99.8606 830.684L101.296 826.926C116.443 787.493 133.981 748.899 158.402 714.257C170.084 697.683 182.433 682.656 198.939 670.712C214.404 659.522 231.847 651.465 249.848 645.307C267.869 639.144 286.391 635.014 305.241 632.445C324.384 629.836 344.59 628.236 362.448 620.374C360.189 616.319 362.128 610.845 365.929 608.33C378.724 599.866 390.555 588.855 402.022 578.68ZM811.595 946.736C812.131 945.922 813.404 946.437 813.169 947.401C806.946 972.927 801.105 998.506 797.29 1024.52C790.404 1071.47 791.671 1119.04 792.234 1166.34L792.262 1168.78C792.552 1194.26 792.953 1219.74 793.795 1245.21C794.22 1258.08 795.06 1271.07 794.603 1283.95C794.354 1290.94 792.494 1297.54 791.835 1304.45C791.258 1310.48 791.772 1316.61 792.06 1322.65C792.253 1326.67 786.33 1326.5 785.927 1322.65L785.412 1317.68C784.743 1311.38 783.916 1305.12 781.855 1299.1C779.376 1291.85 778.187 1284.73 777.327 1277.12C776.01 1265.45 775.425 1253.67 774.916 1241.93L774.569 1233.8C772.446 1184.72 772.521 1135.41 775.957 1086.37L776.208 1082.87C779.61 1036.52 785.514 986.448 811.595 946.736ZM678.951 654.625C677.326 653.956 677.895 651.496 679.695 651.924L682.968 652.706C706.953 658.458 730.502 664.691 752.889 675.395C775.29 686.105 794.255 702.094 809.325 721.755C838.619 759.973 850.792 806.419 860.402 852.822C871.082 904.384 880.806 956.135 891.579 1007.68L893.579 1017.28C903.548 1065.29 912.959 1113.33 919.894 1161.91L920.392 1165.43C927.385 1215.38 931.591 1267.07 923.961 1317.15C922.451 1327.06 905.984 1324.59 906.628 1314.8C908.487 1286.5 909.819 1258.35 908.532 1229.98C907.244 1201.61 904.587 1173.37 900.625 1145.25C897.292 1121.58 892.322 1098.21 887.925 1074.73L887.235 1071.02C883.553 1051.05 879.757 1031.1 875.969 1011.15L870.308 981.285C861.824 936.559 853.174 891.794 843.4 847.349L842.82 844.734C833.255 801.974 819.153 757.183 790.461 723.228C761.345 688.769 719.664 671.414 678.951 654.625ZM573.154 1108.17C573.854 1106.61 576.303 1106.78 577.057 1108.17C580.007 1113.62 580.335 1120.58 580.893 1126.73L580.951 1127.36C581.661 1134.87 582.289 1142.41 582.673 1149.94C583.402 1164.24 583.751 1178.52 583.706 1192.83C583.66 1207.5 583.365 1222.16 582.576 1236.8L582.361 1240.73C581.64 1253.46 580.431 1267.66 574.39 1278.79C572.194 1282.83 566.222 1281.65 564.95 1277.55C560.783 1264.16 562.923 1248.27 563.991 1234.55L564.821 1223.84C565.643 1213.14 566.427 1202.42 567.048 1191.7C567.9 1177.04 568.602 1162.36 569.278 1147.68C569.498 1142.92 569.736 1138.15 569.986 1133.38L570.372 1126.24C570.702 1120.26 570.674 1113.7 573.154 1108.17ZM104.646 1127.16L106.491 1125.37C112.153 1119.82 119.309 1111.28 127.68 1111.81C131.018 1112.02 133.145 1114.79 132.453 1118.08C130.974 1125.11 123.813 1128.76 118.658 1133.05C113.01 1137.75 107.687 1142.77 102.375 1147.85C97.6619 1152.34 93.1294 1156.97 88.7056 1161.74L87.0517 1163.53C85.466 1165.27 74.1741 1175.49 75.395 1178.15L75.4615 1178.27C75.8012 1178.77 75.2353 1179.47 74.6717 1179.3C69.7955 1177.75 70.0997 1173.57 71.9432 1169.33C75.4856 1161.18 81.6887 1153.64 87.1056 1146.69C92.5079 1139.75 98.355 1133.28 104.646 1127.16V1127.16ZM590.823 922.85C587.053 913.926 573.162 914.113 565.276 914.647C545.418 915.99 523.931 921.021 506.262 930.315C487.943 939.95 475.604 955.389 464.563 972.46L464.046 973.262C453.285 990.011 442.92 1009.84 426.07 1021.36C417.487 1027.22 407.465 1032.58 397.051 1034.9C396.336 1036.16 395.178 1037.16 393.659 1037.52L392.953 1037.68C389.987 1038.34 385.379 1039.06 381.399 1038.63C381.426 1040.58 381.405 1042.51 381.455 1044.36C381.595 1049.65 381.654 1054.97 381.654 1060.26C381.657 1071.36 381.061 1082.48 381.523 1093.58C381.933 1103.39 383.318 1113.65 388.024 1122.42C391.476 1128.86 396.032 1133.12 401.531 1137.18C415.06 1128.93 430.358 1123.89 445.884 1120.11C464.661 1115.53 483.887 1112.48 502.238 1106.28C511.069 1103.29 519.56 1099.38 527.253 1094.07C535.418 1088.43 541.655 1080.81 548.072 1073.34L549.074 1072.19C555.623 1064.67 562.768 1057.47 572.023 1053.39C579.993 1049.88 590.497 1049.26 597.466 1043.82C601.11 1040.98 601.415 1036.85 601.798 1032.63C597.335 1033.26 592.611 1032.24 588.163 1031.72L585.858 1031.45C581.652 1030.95 577.543 1030.4 573.402 1029.33C572.633 1029.13 572.633 1027.97 573.402 1027.77C578.295 1026.5 583.145 1025.96 588.163 1025.37L589.341 1025.23C593.88 1024.63 598.651 1023.73 603.104 1024.73C603.902 1021.69 605.056 1018.78 606.675 1015.87C608.946 1011.78 613.245 1007.15 613.826 1002.37C613.999 1000.95 613.668 999.265 612.996 998.004L612.765 997.574C612.482 997.067 612.148 996.556 611.659 996.24C611.605 996.303 611.49 996.376 611.241 996.454C607.814 997.534 604.825 995.855 603.239 993.267C596.504 994.103 589.154 993.822 582.839 994.101L576.453 994.41C569.63 994.723 562.497 994.861 556.085 993.48C555.19 993.288 554.919 991.796 555.815 991.413C563.698 988.037 573.26 986.96 581.699 985.663C586.412 984.938 591.16 984.386 595.887 983.748C599.034 983.323 602.375 982.621 605.636 982.452C613.812 972.26 609.407 956.183 598.028 951.795C593.883 953.619 590.155 952.558 585.627 952.168C581.107 951.78 576.575 951.516 572.036 951.536C562.941 951.576 553.304 953.972 544.297 952.941C542.833 952.772 541.471 950.82 542.928 949.629C549.822 943.996 559.702 942.159 568.453 940.959L570.267 940.716C573.201 940.331 576.769 939.769 580.469 939.434C581.306 937.8 582.808 936.564 585.063 936.257C585.734 936.165 586.408 936.111 587.08 936.054L587.07 935.987V935.987C592.571 935.723 592.332 926.42 590.823 922.85ZM214.237 1096.89C214.14 1097.04 214.034 1097.19 213.92 1097.33L213.746 1097.53L214.65 1097.16L214.237 1096.89V1096.89ZM686.812 902.909C663.659 900.418 640.473 900.944 617.251 901.613C615.394 907.695 608.929 912.879 602.665 913.074C607.571 920.551 608.077 930.67 604.637 938.6C611.941 941.511 618.234 946.741 622.054 954.189C627.351 964.514 626.658 976.003 621.423 985.545C625.891 989.595 628.528 996.173 628.264 1002.37C627.969 1009.29 623.854 1015.19 620.434 1020.92C616.739 1027.11 616.615 1032.56 615.48 1039.49C613.819 1049.64 606.985 1055.79 598.191 1059.63L598.658 1061.48C600.925 1070.31 603.746 1079.64 610.226 1086.1C618.562 1094.41 631.494 1094.33 642.507 1094.86L643.039 1094.89C653.123 1095.39 663.204 1095.98 673.285 1096.55L680.846 1096.98C692.454 1097.62 703.601 1097.69 713.077 1090.01C728.547 1077.47 739.152 1056.71 745.865 1038.34C759.954 999.767 760.123 957.442 753.656 917.273C731.967 910.273 709.462 905.346 686.812 902.909ZM494.267 966.897L494.437 966.909C499.204 967.454 502.479 971.319 503.645 975.904C505.34 982.568 504.509 988.593 508.585 994.609C512.778 1000.8 515.356 1005.75 515.966 1013.39C516.216 1016.53 516.101 1019.67 516.8 1022.75L517.307 1024.91C517.845 1027.21 518.286 1029.42 518.018 1031.89C517.774 1034.14 516.679 1035.89 514.423 1036.62C507.073 1038.97 501.398 1033.55 499.499 1026.69C497.859 1020.77 500.049 1013.71 497.735 1008.14C496.453 1005.06 494.088 1002.48 492.752 999.376C491.428 996.299 490.764 993.084 490.551 989.739C490.149 983.413 495.737 975.812 492.619 970.08C491.955 968.857 492.707 966.86 494.267 966.897ZM396.636 901.614C401.613 900.602 407.26 898.281 412.168 900.21C414.691 901.203 415.938 904.283 413.806 906.424C410.105 910.139 404.726 910.346 399.741 911.222L399.302 911.301C393.408 912.393 387.503 913.429 381.591 914.41C370.466 916.255 359.316 917.886 348.126 919.272C336.634 920.696 325.109 921.964 313.568 922.918L309.1 923.285C299.351 924.066 289.207 924.654 279.642 923.159C278.252 922.942 278.476 920.916 279.642 920.561C290.121 917.385 301.616 916.533 312.45 915.189C323.968 913.758 335.466 912.247 346.935 910.454C358.385 908.663 369.82 906.742 381.213 904.617C386.362 903.659 391.504 902.658 396.636 901.614ZM576.228 891.418C571.86 889.869 567.055 887.575 562.323 888.343C554.161 889.667 546.897 897.629 540.437 902.872L543.681 902.241C560.278 899.047 582.258 895.606 596.191 906.172C596.227 906.111 596.254 906.05 596.294 905.99C597.419 904.279 598.722 902.945 600.144 901.482C600.28 901.353 600.412 901.221 600.541 901.086L601.308 900.268L599.553 899.659C595.794 898.329 591.341 896.611 590.637 896.36L590.588 896.343C585.796 894.718 580.998 893.111 576.228 891.418ZM439.857 543.07C439.174 534.274 452.847 534.346 453.524 543.07C455.001 562.115 450.721 580.98 441.508 597.677C441.44 597.799 441.365 597.907 441.294 598.022C447.057 601.024 452.884 603.904 458.842 606.479C466.463 609.773 474.227 612.773 482.13 615.318C489.279 617.621 498.087 618.53 504.097 623.323C516.771 633.429 512.01 654.4 509.572 667.994L509.191 670.14C507.977 677.135 507.099 684.312 510.045 691.025C513.19 698.196 519.55 703.515 525.224 708.646L526.37 709.687C531.397 714.272 537.141 719.844 540.828 726.059C544.193 719.092 548.781 713.398 553.632 706.988C557.093 702.413 554.63 700.905 552.143 696.436C549.75 692.135 548.582 687.551 549.33 682.644C550.711 673.582 557.944 667.036 565.143 662.118C573.646 656.313 583.135 652.012 591.925 646.611C609.985 635.515 627.575 622.828 643.421 608.738C643.858 608.348 644.616 608.858 644.266 609.39C631.748 628.455 617.07 644.929 599.031 658.913C591.717 664.583 584.033 669.286 576.298 674.23L574.074 675.659C570.968 677.673 567.094 680.366 565.69 683.796C564.277 687.245 567.29 689.849 568.912 692.707C574.062 701.781 571.577 710.247 565.471 717.942L565.187 718.297C559.119 725.784 554.521 732.747 552.321 742.312C547.596 762.859 554.178 784.262 561.068 803.551L561.34 804.312C565.067 814.709 569.029 825.03 572.267 835.594L573.158 838.515C576.092 848.235 578.495 857.821 575.203 867.814C574.084 871.212 569.455 872.016 567.532 868.817C560.749 857.537 559.058 843.963 554.807 831.561C550.663 819.474 545.905 807.606 541.902 795.469C536.748 779.844 533.299 763.023 535.171 746.633C535.116 746.538 535.055 746.448 535.009 746.347L533.697 743.474C530.119 735.693 526.664 728.897 520.158 722.695C513.371 716.225 506.005 710.498 500.665 702.666C489.066 685.654 496.24 666.729 497.641 648.128L497.801 645.847C498.056 641.985 498.195 636.736 495.675 634.063C492.841 631.054 486.195 630.286 482.435 628.954C472.717 625.51 463.14 621.498 454.019 616.68C445.336 612.094 436.925 607.027 429.094 601.092L425.125 598.102C418.863 593.371 412.369 588.204 408.172 581.764C407.688 581.023 408.511 579.826 409.388 580.181C416.394 583.028 422.796 587.557 429.352 591.497C429.454 591.257 429.572 591.014 429.706 590.77C437.817 576.072 441.153 559.788 439.857 543.07ZM663.676 643.773C666.468 636.108 679.191 636.7 678.683 645.808C678.294 652.805 675.328 659.12 672.615 665.473L672.325 666.154C669.524 672.773 666.29 678.988 662.419 685.054C655.023 696.652 646.36 707.414 637.107 717.571C628.718 726.78 617.708 732.411 605.02 731.476C599.674 731.081 594.278 729.719 589.594 727.046C584.03 723.869 577.987 714.33 570.889 716.64C570.202 716.863 569.562 715.857 570.155 715.38C578.35 708.772 587.651 719.017 595.497 721.486C607.319 725.205 619.451 721.093 627.061 711.523C635.005 701.532 642.317 690.345 648.995 679.466C652.385 673.942 655.479 668.209 658.151 662.3C660.848 656.336 661.461 649.855 663.676 643.773ZM644.62 596.6C644.275 595.541 645.588 594.534 646.517 595.139C651.902 598.649 656.568 603.287 661.535 607.352C667.046 611.862 672.597 616.281 678.234 620.631C686.452 626.975 676.921 638.652 669.687 631.723C659.788 622.244 648.946 609.849 644.62 596.6ZM615.056 559.498C617.243 551.052 630.182 554.535 628.296 562.883L628.235 563.137C624.663 576.926 629.75 590.964 640.607 599.903L641.007 600.228C647.876 605.732 638.144 615.355 631.343 609.903C616.495 598.005 610.318 577.793 615.056 559.498Z" fill="black"/>
<path fill-rule="evenodd" clip-rule="evenodd" d="M710.49 241.267C711.738 229.63 698.162 198.583 698.489 204.881C676.723 171.205 634.246 157.962 597.597 146.845C519.796 121.074 459.042 152.198 404.378 207.36C372.106 237.608 341.398 271.396 325.198 313.27C293.328 393.149 341.099 484.233 413.748 522.392C419.611 525.576 425.999 528.599 431.582 532.445C461.614 549.855 496.879 555.877 530.344 563.455C592.951 577.814 671.579 570.971 708.474 511.162C733.499 468.715 726.851 417.259 724.892 370.152C721.95 328.879 716.784 282.238 710.49 241.267Z" fill="#FFE2CE"/>
<path d="M530.561 69.3824C475.748 66.1572 415.797 84.5979 375.236 122.645C369.442 128.079 364.111 134.147 359.178 140.62C352.725 146.801 346.601 153.323 340.881 160.165C301.339 207.452 279.484 266.921 271.179 327.584C266.906 358.812 265.818 390.364 267.765 421.823C269.655 452.281 275.864 482.625 274.398 513.244C273.722 527.152 271.225 541.427 264.386 553.714C257.943 565.298 247.805 573.255 237.766 581.476L235.761 583.125C225.612 591.517 214.811 601.264 211.374 614.55C207.64 628.964 213.86 643.492 226.082 651.584C238.281 659.663 254.134 660.329 267.456 654.928C275.203 651.784 282.021 647.2 288.339 641.769C294.979 646.18 303.504 648.408 311.649 647.921C318.929 647.485 327.3 645.572 335.017 642.202C341.522 647.036 350.241 648.718 358.207 648.456C368.052 648.133 379.053 645.366 387.931 639.863C391.972 640.977 396.27 641.467 400.639 641.251C421.579 640.205 439.711 621.263 444.556 601.655C448.68 584.965 449.256 562.894 444.556 548.385C439.699 533.392 429.488 526.233 429.488 526.233C429.488 526.233 421.521 497.371 409.322 479.234C407.169 476.039 404.946 472.913 402.621 469.844C400.101 464.511 397.339 459.28 394.225 454.349C391.944 450.753 389.425 446.971 386.526 443.546C387.377 442.516 388.174 441.368 389.008 440.165L389.104 440.028C390.869 437.489 389.059 433.706 386.252 432.983C383.71 432.339 381.533 431.12 378.887 430.811C376.31 430.499 373.617 430.638 371.04 430.453C366.539 430.144 362.198 428.857 358.246 426.673C357.948 426.512 357.65 426.339 357.364 426.155C357.352 426.167 357.352 426.167 357.341 426.143C357.03 425.972 356.711 425.775 356.413 425.593C347.994 420.236 342.93 411.695 341.052 401.811C339.002 390.995 340.823 378.951 345.359 368.961C348.509 362.032 354.844 352.962 362.438 350.641C369.448 353.09 379.093 362.285 385.187 355.228C387.076 353.044 387.455 349.629 385.187 347.481C384.076 346.435 382.656 345.491 381.098 344.653C381.911 343.491 382.713 342.33 383.503 341.171C384.718 339.642 385.863 338.067 386.882 336.435C387.362 335.665 387.845 334.895 388.349 334.125L388.406 334.021L392.075 328.628C400.618 316.032 409.034 303.351 417.363 290.608C423.685 286.092 429.918 281.437 436.068 276.713C466.286 253.541 494.486 227.554 519.081 198.406C526.961 189.062 534.499 179.406 541.612 169.452C567.419 175.269 593.833 178.993 619.263 186.234C635.872 190.97 652.344 196.739 667.383 205.37C674.658 209.544 681.542 214.337 687.567 220.198C690.396 222.957 693.043 225.899 695.379 229.083C698.151 232.863 700.133 234.53 704.405 235.784C704.761 236.611 705.276 237.428 705.94 238.198L708.732 240.435C709.408 240.624 711.036 241.256 712.206 241.404C716.479 241.749 720.992 239.185 723.145 235.117C726.395 228.982 723.826 220.344 722.527 213.788L722.117 211.637C719.571 198.571 715.075 185.891 709.377 173.866C697.441 148.671 678.793 127.432 654.669 113.409C649.853 110.607 644.88 108.03 639.794 105.649C632.255 100.121 624.079 95.4274 615.688 91.4172C588.859 78.5935 560.248 71.1295 530.561 69.3824Z" fill="#62442E"/>
<path d="M717.386 543.019C716.357 538.919 715.897 535.207 714.53 531.909C710.072 535.042 699.981 542.134 695.286 545.437C690.591 548.74 671.505 557.205 662.55 561.024C656.463 563.22 642.282 568.163 634.248 570.362C626.213 572.56 614.572 574.286 609.756 574.874C603.456 586.401 604.451 600.665 610.855 612.286C612.619 615.482 614.807 618.332 617.338 620.826C625.105 628.526 636.01 632.872 646.96 633.401C647.247 633.526 647.545 633.652 647.842 633.768L648.506 634.037C658.025 637.87 667.877 640.785 678.255 639.549C685.138 638.734 691.347 635.714 696.162 631.342C702.415 633.311 709.172 633.078 715.484 631.234C722.725 634.606 730.51 636.345 738.071 631.928C745.734 627.458 750.27 618.171 749.984 609.401C749.659 599.697 743.042 592.615 734.939 588.274C733.689 584.03 731.721 579.871 729.687 575.77L727.809 572.002L725.402 566.254C724.602 564.356 723.793 562.462 722.986 560.569L722.638 559.754C720.664 554.247 718.81 548.692 717.386 543.019Z" fill="#62442E"/>
<path fill-rule="evenodd" clip-rule="evenodd" d="M547.777 71.1515C509.679 65.9915 481.912 70.8078 449.658 79.1546C393.11 93.7885 330.282 125.512 312.678 185.209C309.329 196.564 301.21 208.21 293.107 219.834C279.739 239.008 266.414 258.121 274.618 275.76C260.606 285.165 255.348 349.311 258.749 383.024C260.489 400.274 262.974 412.325 265.406 424.118C267.727 435.373 270 446.394 271.53 461.475C271.82 464.324 272.098 466.92 272.36 469.361C273.513 480.102 274.344 487.848 274.344 500.972C274.344 507.734 273.003 514.853 271.912 520.646C270.244 529.503 269.16 535.26 274.344 531.904C275.89 530.902 284.941 515.843 284.941 509.07C289.212 491.194 284.993 458.63 281.757 433.65C281.536 431.951 281.321 430.286 281.113 428.663C277.855 412.826 274.613 392.588 274.613 392.588C274.425 378.965 277.097 291.615 289.227 285.916C293.225 284.038 294.015 278.458 292.099 274.93C284.038 260.09 296.022 243.762 308.197 227.174C316.12 216.379 324.124 205.474 326.736 194.798C333.198 168.393 353.288 147.861 374.563 131.357C419.935 96.1574 482.544 83.3637 538.812 85.2245C551.569 85.6458 562.318 87.9028 574.005 90.3567L574.005 90.3567L574.005 90.3568L574.005 90.3568C577.559 91.103 581.199 91.8674 585.009 92.6038C601.376 95.7676 622.92 105.063 640.23 112.531L640.24 112.535L640.846 112.796L642.181 113.372C653.946 119.38 657.862 115.365 656.623 114.429C629.785 92.6038 585.437 76.2519 547.777 71.1515ZM717.501 263.911L715.566 253.567C715.077 250.951 714.397 248.348 713.717 245.749L713.717 245.748L713.717 245.748L713.717 245.748L713.717 245.747L713.717 245.747L713.717 245.747L713.715 245.739C713.508 244.946 713.301 244.154 713.099 243.362L712.941 242.728C714.348 242.834 716.256 242.594 718.688 241.344C720.524 240.094 722.343 238.533 723.201 236.667C723.206 236.656 723.219 236.633 723.24 236.598C723.535 236.09 725.319 233.031 724.991 227.133C724.826 224.161 723.027 214.122 720.984 206.312C719.759 201.629 717.177 192.805 713.847 184.9C711.423 178.173 709.293 172.261 706.229 167.149C705.357 165.695 704.454 164.111 703.554 162.53C702.031 159.857 700.514 157.193 699.153 155.173C698.906 154.807 698.633 154.393 698.341 153.95C695.993 150.386 692.425 144.972 691.475 147.75C688.188 152.471 692.809 162.395 696.726 170.807C698.386 174.371 699.918 177.662 700.67 180.172C702.428 186.043 704.961 192.846 707.226 198.932C709.97 206.304 712.322 212.624 712.436 214.965C712.726 220.971 708.012 224.115 706.899 224.115C701.287 224.115 698.931 220.479 695.326 214.913L695.325 214.912C694.6 213.792 693.824 212.594 692.961 211.333C689.603 206.423 680.61 199.61 671.418 193.91C661.951 188.038 643.614 181.141 624.978 175.27C610.135 170.594 606.858 169.887 586.316 165.633C574.091 163.102 563.684 162.154 556.172 161.471C551.836 161.076 548.465 160.769 546.265 160.296C539.942 158.936 538.25 155.974 537.028 153.835C536.222 152.425 535.621 151.373 534.034 151.373C528.414 153.001 526.076 159.293 523.287 166.792L523.287 166.793C522.082 170.034 520.794 173.5 519.121 176.912C515.073 185.167 510.961 189.936 505.716 196.019C504.619 197.291 503.472 198.621 502.267 200.052C500.944 201.622 467.666 235.723 456.72 245.314C449.82 251.361 442.781 256.311 436.126 260.991C430.275 265.106 424.721 269.012 419.819 273.27C407.282 281.866 399.758 290.395 396.739 293.818L396.739 293.818C395.763 294.924 395.258 295.497 395.206 295.366C391.482 286.045 384.88 278.042 375.838 273.27C374.803 272.725 373.819 274.008 374.601 274.878C382.553 283.728 386.78 295.228 386.985 307.099C387.079 312.54 386.468 317.762 384.743 322.94C384.078 324.937 383.725 326.499 383.411 327.889C382.813 330.539 382.356 332.565 380.139 335.786C375.347 342.75 380.806 346.68 385.377 345.533C390.996 341.233 397.337 330.269 398.388 320.461C399.342 319.463 401.072 317.217 404.463 312.786C410.016 305.528 415.098 297.995 418.338 292.732C420.992 290.389 424.277 287.942 428.292 284.95L428.292 284.95L428.292 284.949C437.064 278.413 449.321 269.279 466.107 252.967C480.273 241.219 490.393 230.955 500.522 220.682L500.524 220.68C504.098 217.055 507.674 213.429 511.428 209.736C525.208 196.183 536.551 178.733 540.137 173.217L540.137 173.217C540.805 172.19 541.203 171.577 541.299 171.479C541.335 171.401 565.661 175.503 592.727 181.149C605.66 183.847 613.684 186.071 622.749 188.584C623.92 188.908 625.108 189.238 626.327 189.573C646.557 195.149 648.803 196.174 661.906 203.248C671.147 208.237 676.381 211.232 684.33 218.108C688.019 221.299 691.381 225.377 694.116 228.695L694.116 228.695C696.44 231.514 698.311 233.785 699.547 234.496C701.188 235.736 703.206 236.916 704.538 236.916C704.538 236.916 705.316 240.114 709.312 241.725L709.258 242.234L709.224 242.595L709.178 243.081L709.176 243.109C708.996 244.993 708.817 246.884 708.773 248.808C708.704 251.841 708.707 254.884 708.709 257.923V257.927V257.927V257.927V257.928C708.71 259.437 708.711 260.945 708.703 262.451C708.694 264.38 708.679 266.31 708.665 268.24V268.246V268.252V268.257V268.263C708.612 275.424 708.559 282.594 708.739 289.749C709.05 302.203 709.799 314.67 710.619 327.118L711.614 342.046C712.448 354.651 713.526 367.256 714.605 379.864V379.864V379.865V379.865V379.865V379.866V379.866C716.369 400.493 718.134 421.126 718.831 441.778C719.758 469.639 717.238 500.706 698.212 522.728C689.575 532.74 678.865 540.406 667.078 546.267C654.799 552.358 640.835 557.279 627.434 559.98C609.48 563.611 590.577 563 572.328 561.999L569.725 561.853C567.68 561.739 565.622 561.643 563.56 561.547H563.559C556.497 561.217 549.373 560.884 542.44 559.807C538.03 559.127 533.767 557.664 529.525 556.208C527.179 555.404 524.84 554.601 522.486 553.934C520.745 553.44 518.843 554.831 518.89 556.681C519.216 571.149 536.372 573.128 548.005 573.968L552.244 574.257C570.221 575.445 588.276 576.368 606.3 575.853C607.03 575.834 612.274 575.387 617.158 574.97L617.164 574.97C621.325 574.615 625.224 574.283 625.845 574.257C638.892 572.831 645.228 570.877 662.698 565.129C669.736 562.813 690.476 552.838 696.772 547.792C696.772 547.792 701.477 543.848 709.83 537.072L715.141 532.738C729.481 514.848 736.869 492.857 738.44 468.754C739.483 452.685 738.281 436.547 736.746 420.549L735.854 411.255C734.359 395.765 732.82 380.27 731.179 364.792C728.888 343.149 726.288 321.541 723.412 299.977C722.038 289.621 720.32 279.359 718.453 269.083C718.139 267.359 717.821 265.635 717.501 263.911ZM709.312 241.725C709.59 241.837 709.884 241.942 710.195 242.037C710.284 242.064 710.395 242.106 710.527 242.156C711.025 242.343 711.826 242.644 712.941 242.728L712.817 242.234C711.669 242.11 710.043 241.449 709.374 241.133L709.312 241.725ZM390.07 386.803C384.594 379.792 373.575 373.147 364.388 375.941C358.111 377.836 352.166 384.182 352.613 390.986C352.682 392.008 354.308 392.389 354.515 391.25C355.717 384.527 362.544 383.837 367.642 386.596C370.97 388.395 373.285 391.679 375.522 394.851L375.522 394.851C376.442 396.155 377.348 397.44 378.306 398.595C381.204 402.077 387.069 401.538 390.07 398.595C393.598 395.136 392.819 390.32 390.07 386.803ZM229.825 629.238C226.017 615.795 242.444 591.894 253.089 576.406C258.343 568.76 262.189 563.165 261.497 561.889C259.408 559.937 258.957 560.348 252.814 565.938C252.263 566.44 251.667 566.983 251.019 567.57C251.019 567.57 239.592 577.604 237.444 579.166C224.397 588.97 216.946 600.812 212.429 612.529C208.504 626.104 210.544 631.238 214.134 639.556C218.481 647.68 225.788 653.275 233.522 656.5C242.825 660.38 251.429 660.169 261.029 658.247C268.369 656.338 280.845 650.445 288.374 642.956C297.973 649.074 308.665 649.464 313.378 648.927L313.581 648.904C320.314 648.138 325.463 647.552 335.245 643.332C335.245 643.332 337.788 645.281 339.959 646.157C342.13 647.033 349.307 649.882 358.991 649.55C365.406 649.331 374.146 647.49 375.413 646.753C375.611 646.638 375.99 646.516 376.564 646.331C378.36 645.751 382.062 644.557 388.062 641.056C388.213 641.056 388.577 641.144 389.126 641.276L389.128 641.277C391.217 641.781 395.974 642.929 401.794 642.344C401.852 642.338 401.974 642.339 402.154 642.34C404.353 642.353 415.302 642.418 427.389 631.302C431.54 626.418 439.895 614.951 444.363 602.776C449.528 588.704 450.555 580.014 449.635 564.742C448.753 550.101 440.917 541.585 440.917 541.585C440.917 541.585 435.585 538.487 436.118 545.93C436.303 548.51 436.662 551.324 437.049 554.363C438.103 562.631 439.368 572.558 437.919 583.924C435.352 604.057 422.582 620.341 418.46 623.542C412.173 628.423 404.563 632.182 399.083 630.47C396.11 629.541 395.278 627.693 394.474 625.909C393.754 624.31 393.057 622.763 390.866 621.97C388.38 621.071 385.957 622.866 383.987 624.326C383.683 624.551 383.39 624.769 383.109 624.967C381.272 626.81 372.79 634.747 367.725 636.233C362.392 637.797 352.53 636.177 348.37 633.403C346.837 632.382 346.831 629.332 346.825 626.588C346.821 624.581 346.817 622.738 346.217 621.97C343.685 618.731 338.521 622.446 333.044 628.789C328.747 633.764 323.142 636.622 319.599 637.454C310.836 639.51 300.333 638.721 295.942 629.996C295.243 628.607 295.274 627.356 295.304 626.113C295.342 624.568 295.379 623.037 294.014 621.272C291.498 618.019 281.993 623.1 275.469 629.238C272.754 631.061 270.841 632.492 269.239 633.691C265.473 636.51 263.421 638.046 256.694 640.367C252.584 641.785 246.221 640.681 241.426 639.849C240.83 639.745 240.258 639.646 239.717 639.556C232.408 636.205 231.2 633.836 229.825 629.238ZM610.83 586.197C611.176 593.097 613.237 597.478 616.767 603.125C621.34 610.443 627.522 618.781 638.001 618.781L638.075 618.781C638.115 618.781 638.159 618.782 638.207 618.782C639.832 618.799 646.054 618.861 651.1 614.101C656.394 609.108 660.935 608.073 662.758 612.112C663.183 613.055 662.761 614.622 662.284 616.387C661.532 619.173 660.647 622.454 662.758 624.556C670.556 629.03 674.851 629.258 683.237 626.25C688.559 622.79 690.513 619.359 691.982 616.782C692.757 615.422 693.397 614.299 694.325 613.535C697.011 611.324 700.47 611.388 702.038 614.503C702.203 614.831 702.358 615.142 702.505 615.436C704.726 619.886 705.085 620.603 709.663 620.603C712.179 619.852 713.516 618.413 714.694 617.145C715.82 615.933 716.802 614.877 718.53 614.726C719.993 614.599 720.989 615.812 722.008 617.053C722.773 617.984 723.551 618.932 724.549 619.338C727.85 620.683 731.425 618.91 733.945 615.992C737.178 612.248 733.918 608.776 729.834 604.426C726.999 601.406 723.767 597.964 722.036 593.715C719.306 587.013 716.556 571.399 716.556 562.781C716.556 554.395 716.733 550.383 718.03 549.762C719.146 549.229 719.728 551.499 720.048 552.743C720.1 552.946 720.145 553.122 720.184 553.253C721.197 556.658 727.382 571.725 727.382 571.725L731.886 580.832L735.142 589.447C735.142 589.447 741.559 592.08 746.288 598.881C752.199 607.382 749.879 616.699 748.363 620.941C746.341 626.601 742.41 630.591 737.961 633.249C730.959 636.811 726.535 635.837 723.12 635.086L722.979 635.055C719.544 634.3 715.586 632.463 715.586 632.463C704.432 635.777 696.335 632.463 696.335 632.463C696.335 632.463 689.422 639.166 678.938 640.72C667.887 642.358 653.745 637.152 648.375 635.175C647.831 634.975 647.376 634.807 647.025 634.684C638.626 634.019 629.328 631.439 622.063 625.871C616.393 621.525 614.766 620.236 610.419 612.112C609.889 610.884 609.426 609.828 609.019 608.901C606.67 603.549 606.206 602.491 605.659 597.359C605.155 592.632 605.637 588.181 606.327 585.204L606.394 584.917C607.042 582.113 607.661 579.435 609.89 579.743C611.018 579.9 610.936 581.985 610.856 584.033V584.033V584.034V584.034C610.827 584.794 610.797 585.548 610.83 586.197ZM384.698 440.973C384.806 441.042 384.91 441.117 384.997 441.223C385.813 442.225 386.594 443.187 387.343 444.116C387.261 444.223 387.184 444.323 387.112 444.414L383.789 443.938L384.698 440.973ZM383.789 443.938L376.635 442.913L364.369 440.023L350.153 433.683L338.445 423.334L330.919 411.493C330.919 411.493 329.015 398.66 329.433 390.421C329.676 385.622 330.919 378.207 330.919 378.207L334.357 367.765L340.21 356.852L345.507 350.088C348.581 347.304 355.972 341.429 360.941 340.202C365.909 338.975 370.695 340.33 372.467 341.16L377.753 343.461L381.675 345.487C381.979 345.65 382.868 346.154 383.987 346.871C385.385 347.768 386.201 348.392 386.998 350.088C387.742 351.672 387.232 353.204 386.924 354.13C386.902 354.196 386.881 354.259 386.862 354.318C386.62 355.062 386.137 355.618 385.547 356.299C385.426 356.438 385.301 356.583 385.172 356.735C384.414 357.632 382.51 358.353 381.888 358.548C381.267 358.743 379.615 358.743 378.333 358.548C377.051 358.353 373.729 356.891 373.127 356.579C372.645 356.33 370.582 355.215 369.61 354.688L365.298 352.369L363.058 351.419C363.037 351.439 362.864 351.512 362.286 351.706C361.354 352.018 358.867 353.46 358.576 353.636C358.343 353.776 357.209 354.669 356.672 355.098C356.122 355.579 354.962 356.603 354.73 356.852C354.497 357.102 351.887 360.231 350.611 361.765L349.805 362.912C349.634 363.174 349.273 363.728 349.205 363.85C349.153 363.944 348.934 364.29 348.753 364.577C348.638 364.759 348.539 364.916 348.507 364.968C348.443 365.076 348.069 365.713 347.89 366.019L347.071 367.541L346.472 368.713L345.89 369.956L345.259 371.429L344.758 372.673L344.19 374.195L343.706 375.6L343.129 377.486L342.664 379.201L342.154 381.32L341.796 383.071C341.726 383.53 341.57 384.515 341.509 384.777C341.446 385.05 341.296 386.268 341.227 386.827C341.213 386.939 341.202 387.025 341.196 387.071C341.16 387.35 340.923 390.165 340.883 390.766C340.851 391.248 340.833 393.373 340.828 394.376L340.916 396.595C340.988 397.369 341.146 399.073 341.207 399.702C341.283 400.489 341.586 402.074 342.029 404.293C342.471 406.513 343.937 410.558 344.24 411.205C344.544 411.852 346.439 415.546 346.74 415.999C347.04 416.451 348.654 418.732 349.029 419.246C349.309 419.629 350.343 420.735 351.125 421.57C351.392 421.857 351.63 422.111 351.798 422.294C352.415 422.966 354.032 424.242 355.055 425.049L355.242 425.197C356.016 425.809 356.962 426.379 357.637 426.786C357.834 426.905 358.008 427.01 358.148 427.097C358.767 427.486 360.404 428.301 360.96 428.571C361.516 428.84 362.943 429.384 363.259 429.505L363.26 429.505C363.573 429.625 365.285 430.17 365.548 430.239C365.81 430.308 367.235 430.666 367.679 430.76C368.123 430.854 369.373 431.042 370.11 431.136C370.848 431.23 372.354 431.318 372.691 431.337C372.9 431.348 373.894 431.37 374.712 431.387C375.215 431.398 375.652 431.407 375.797 431.412C376.179 431.424 378.204 431.512 378.604 431.537C379.004 431.562 380.041 431.719 380.447 431.788C380.772 431.843 381.937 432.179 382.479 432.34C383.489 432.691 385.54 433.407 385.66 433.463C385.736 433.498 386.137 433.612 386.539 433.727C386.928 433.838 387.318 433.949 387.416 433.989C387.616 434.071 388.322 434.485 388.541 434.667C388.716 434.812 389.235 435.384 389.472 435.651C389.7 436.02 390.2 436.969 390.379 437.813C390.588 438.797 390.31 439.546 390.072 440.189C390.055 440.236 390.038 440.282 390.021 440.328C389.84 440.823 388.283 442.901 387.343 444.116C398.415 457.834 402.721 464.301 412.303 482.816C416.826 491.556 418.702 495.096 419.81 497.187L419.81 497.188L419.81 497.188C421.207 499.825 421.383 500.156 424.11 505.711C424.173 505.84 424.238 505.973 424.305 506.109L424.313 506.125C427.27 512.171 433.517 524.943 455.421 532.782L457.081 533.471C457.786 533.77 458.689 534.106 459.703 534.484C464.525 536.28 471.851 539.008 472.278 543.064C472.742 547.461 465.033 548.184 460.173 547.22C448.382 544.883 438.32 541.163 431.677 535.856C422.072 528.185 416.481 517.394 410.834 506.495C408.083 501.187 405.32 495.853 402.073 490.842L401.093 489.318C392.943 476.547 385.283 461.982 382.903 446.824L383.789 443.938Z" fill="black"/>
<path fill-rule="evenodd" clip-rule="evenodd" d="M532.441 442.019C544.978 434.46 591.839 440 628.649 442.019C657.881 443.621 678.759 440.445 685.442 444.949C700.539 455.123 693.206 504.323 667.191 511.052C641.176 517.78 544.739 527.178 528.111 511.052C511.483 494.925 509.948 455.58 532.441 442.019Z" fill="white"/>
<path fill-rule="evenodd" clip-rule="evenodd" d="M548.68 429.005C568.357 426.614 587.43 432.646 606.667 435.686C616.823 437.291 626.992 438.489 637.27 438.934C639.337 439.025 641.406 439.077 643.475 439.12C643.667 437.297 644.687 435.622 646.895 434.619C651.422 432.565 655.045 431.638 660.015 431.836C664.564 432.016 669.13 432.484 673.61 433.305C681.744 434.799 689.916 438.188 695.866 444.075C709.638 457.699 707.542 479.582 696.901 494.421C674.916 525.084 634.791 526.507 600.426 526.107L597.255 526.065C565.964 525.618 521.197 530.289 506.981 494.642C501.753 481.534 502.479 466.34 508.88 453.767C516.514 438.772 532.584 430.961 548.68 429.005ZM646.421 480.059L646.14 480.07C631.714 480.627 617.289 481.018 602.855 481.274C603.287 484.986 603.728 488.698 604.232 492.402C604.627 495.317 605.05 498.228 605.491 501.136C605.678 502.367 606.363 504.278 606.17 505.498L606.1 505.98V505.98C606.841 506.316 607.513 506.856 608.014 507.641C608.188 507.912 608.314 508.186 608.44 508.458C619.647 508.547 631.707 508.329 643.131 506.289L643.154 506.041V506.041C643.361 504.58 643.968 503.596 644.775 502.921C645.578 498.261 645.504 493.295 645.815 488.672C646.008 485.8 646.218 482.93 646.421 480.059ZM591.83 481.471C581.432 481.648 571.029 481.784 560.633 481.657L555.913 481.584V481.584C556.91 486.938 557.994 492.274 558.896 497.663C559.836 503.281 554.898 506.852 550.625 506.707C551.105 506.786 551.583 506.868 552.063 506.935C565.416 508.826 579.28 508.324 592.83 508.31C592.101 504.049 592.396 499.242 592.287 495.686L592.266 495.135C592.059 490.578 591.914 486.024 591.83 481.471ZM521.199 480.488C521.56 483.272 522.262 485.997 523.312 488.534C527.751 499.251 537.927 504.252 548.694 506.358C546.825 505.712 545.342 504.16 544.967 501.502C544.034 494.893 543.698 488.174 543.673 481.463C536.17 481.393 528.615 481.233 521.199 480.488ZM685.552 478.2C680.21 479.462 674.001 478.884 668.76 479.122C663.849 479.345 658.937 479.54 654.026 479.739C654.258 483.096 654.483 486.452 654.729 489.806C655.045 494.142 655.074 498.724 655.904 503.041C665.786 499.664 674.642 494.248 681.285 485.588C682.94 483.43 684.422 480.898 685.552 478.2ZM546.422 446.589C537.529 448.697 529.113 453.151 524.589 461.3C521.904 466.135 520.724 471.866 520.95 477.513C528.467 476.637 536.112 476.305 543.721 476.03C543.746 474.658 543.779 473.287 543.82 471.92L543.937 468.415C544.145 461.729 544.249 453.334 546.422 446.589ZM592.452 447.405L588.537 446.964C577.663 445.724 566.795 444.421 555.921 445.168C554.347 445.277 552.749 445.448 551.148 445.683C553.07 452.628 552.909 460.784 553.712 467.659C554.022 470.317 554.414 472.954 554.848 475.58L556.734 475.492V475.492C568.403 474.858 580.083 474.469 591.76 474.005C591.759 471.81 591.771 469.613 591.806 467.415L591.85 465.218C591.982 459.605 591.62 453.282 592.452 447.405ZM647.056 446.514C635.667 448.354 623.897 448.746 612.71 448.759C608.242 448.765 603.776 448.49 599.312 448.094C599.603 450.474 599.754 452.881 599.973 455.228C600.414 459.97 600.917 464.705 601.465 469.435L601.953 473.574V473.574C616.306 472.923 630.659 472.218 645.008 471.489L647.033 471.38V471.38L647.601 463.425C647.987 458.121 648.413 452.818 649.013 447.537L648.563 447.375V447.375C648.033 447.157 647.532 446.857 647.056 446.514ZM652.002 448.488C652.63 455.988 652.977 463.519 653.439 471.032L662.899 470.526C664.475 470.44 666.052 470.352 667.628 470.261C673.758 469.907 681.635 468.049 687.696 469.783C688.159 464.266 686.584 458.891 681.611 455.185C672.882 448.676 661.767 450.994 652.002 448.488ZM619.681 381.441C633.768 373.363 669.113 365.107 671.351 390.491C672.381 402.172 663.708 411.851 653.58 416.169L653.2 416.329C643.701 420.239 626.865 424.655 618.645 416.176C611.803 409.119 620.877 396.465 629.379 402.247C633.748 405.217 642.943 403.028 647.818 401.615L648.124 401.526C653.384 399.978 660.398 395.023 658.223 388.537C656.298 382.799 648.106 381.751 642.977 381.565C635.319 381.29 627.867 383.07 620.279 383.65C619.078 383.742 618.707 381.999 619.681 381.441ZM678.034 340.623C697.154 339.726 709.047 360.629 704.65 377.756C703.89 380.711 700.589 383.612 697.403 383.28L696.6 383.206C696.192 383.167 695.782 383.115 695.405 383.011C692.379 382.172 689.667 379.02 689.887 375.754L689.946 374.802C690.392 366.711 689.516 357.39 679.913 355.43C671.769 353.768 667.222 361.618 667.126 368.843C667.108 370.125 665.668 371.021 664.535 370.331C658.648 366.744 657.628 359.607 659.877 353.462C662.727 345.674 669.86 341.006 678.034 340.623ZM536.152 345.106C550.065 340.458 565.076 347.884 571.813 360.201C574.177 360.886 576.537 362.71 576.209 365.503C575.734 369.521 575.021 372.054 572.238 375.101C567.886 379.868 559.735 377.431 557.926 371.563L557.849 371.298C555.795 363.713 547.456 358.709 539.861 361.364C530.988 364.465 531.245 373.849 525.021 379.315C524.29 379.957 523.413 380.06 522.536 379.636C515.925 376.437 517.113 366.81 519.47 361.3C522.561 354.069 528.569 347.638 536.152 345.106ZM517.203 302.8C528.478 291.281 557.877 280.135 565.59 301.406C567.059 305.458 563.931 310.921 559.719 311.761C552.82 313.136 546.699 310.137 539.846 310.675C534.299 311.113 528.512 312.969 524.077 316.41C511.792 325.941 509.09 342.061 500.53 354.191C500.113 354.782 499.304 354.534 499.227 353.837C497.278 336.177 504.854 315.416 517.203 302.8ZM664.242 291.461C671.724 288.815 680.197 289.041 687.717 291.388C695.294 293.754 702.249 298.246 707.607 304.114C710.038 306.779 712.288 309.719 714.092 312.848C715.051 314.507 716.059 317.933 717.148 319.973C723.042 323.381 725.561 331.145 720.284 336.668L720.047 336.911L719.341 337.612C716.504 340.423 712.227 341.642 708.355 340.519C699.691 338.008 698.638 331.175 695.639 323.923C693.658 319.132 690.264 314.893 686.148 311.779C676.422 304.423 660.475 302.08 648.765 305.546C648.142 305.731 647.409 304.936 647.854 304.359C650.073 301.481 651.351 299.119 654.322 296.797C657.338 294.441 660.629 292.739 664.242 291.461Z" fill="black"/>
<path fill-rule="evenodd" clip-rule="evenodd" d="M681.856 427.104C665.755 424.386 649.028 428.404 633.504 432.685C608.844 416.473 576.89 432.837 559.229 453.092C553.185 458.077 540.491 464.697 547.179 474.207C544.644 480.929 543.966 484.093 549.212 476.234C578.907 479.657 610.766 473.191 640.153 467.092C650.159 470.461 658.996 478.338 669.995 475.64C680.395 477.854 691.654 479.921 701.043 473.241C708.192 472.951 724.097 485.805 723.841 470.856C721.63 456.527 693.256 432.685 681.856 427.104Z" fill="#62442E"/>
<path fill-rule="evenodd" clip-rule="evenodd" d="M693.929 473.106C676.449 475.043 658.722 472.197 644.086 462.034C642.558 460.973 641.052 460.985 639.823 461.607C638.33 461.441 636.802 462.038 635.916 463.746C632.241 470.834 620.058 469.255 613.361 469.399C591.456 469.822 568.786 468.612 547.706 475.243C567.867 435.78 595.75 418.744 638.896 434.236C635 437.378 654.441 430.024 656.146 429.884C685.998 422.394 710.626 447.465 722.657 472.307C713.556 470.139 703.357 472.061 693.929 473.106M735.625 479.822C722.462 450.135 696.508 417.492 660.307 422.623C652.875 423.718 645.057 428.802 637.574 427.885C615.907 419.873 598.023 415.802 576.325 428.757C567.119 429.446 515.312 493.67 539.931 488.426C570.15 471.05 622.694 487.417 641.459 471.875C678.301 496.092 708.256 469.786 729.019 484.923C732.629 488.239 737.692 484.109 735.625 479.822" fill="black"/>
</svg>
