<svg width="940" height="1371" viewBox="0 0 940 1371" fill="none" xmlns="http://www.w3.org/2000/svg">
<rect x="529.916" y="849.132" width="262.866" height="324.125" fill="white"/>
<path fill-rule="evenodd" clip-rule="evenodd" d="M453.244 532.102C481.58 510.497 552.718 500.781 582.96 521.584C612.83 542.474 616.087 576.256 630.006 607.333C643.139 601.132 664.827 610.013 668.634 622.215C673.357 627.969 673.569 644.138 676.825 651.875C818.523 674.459 840.035 785.074 857.091 910.653C879.653 1038.08 930.873 1165.24 908.638 1296.36C911.535 1300.56 913.819 1304.64 915.931 1309.49C920.992 1318.11 914.473 1330.32 904.265 1329.84C891.052 1328.68 877.969 1327.09 864.694 1326.6C827.893 1325.32 791.059 1325.47 754.244 1325.94L749.224 1326.01C563.687 1328.32 378.161 1332.88 192.617 1334.08C185.885 1334.09 182.59 1328.05 183.489 1322.09C185.299 1310.08 186.978 1298.07 188.731 1286.06C144.845 1297.67 98.1901 1300.59 54.4281 1287.28C51.3667 1284.16 61.5611 1285.85 63.1784 1285.38C22.9037 1257.82 34.9312 1199.77 38.4989 1157.96C60.6829 1014.68 68.5035 856.164 154.215 733.908C191.295 684.016 245.658 644.514 308.125 635.625L309.858 635.388C328.123 632.949 348.48 632.164 364.449 622.215C382.411 607.857 390.065 581.329 408.961 581.081C415.2 580.998 423.688 588.902 432.822 594.268C433.504 582.464 439.858 572.501 441.26 563.348L441.374 562.566C442.838 551.895 440.833 542.294 453.244 532.102ZM757.765 914.438C717.944 886.738 615.079 900.656 612.724 902.207C607.539 905.622 605.306 905.924 602.502 910.358C599.733 910.726 596.967 911.108 594.203 911.501C588.657 913.315 592.766 920.144 599.172 917.708C595.319 934.344 606.657 946.175 611.171 962.622C612.636 967.963 611.223 977.567 611.171 983.023C611.608 989.98 619.29 998.198 618.01 1005.18C613.458 1029.99 588.758 1054.2 599.172 1078.26C606.071 1091.85 626.82 1098.78 640.615 1103.4C669.196 1114.39 718.996 1102.99 735.603 1078.26C744.461 1065.07 754.723 1031.8 760.004 1021.48L761.175 1005.11C764.062 964.413 766.629 920.604 757.765 914.438Z" fill="#FFE2CD"/>
<path fill-rule="evenodd" clip-rule="evenodd" d="M407.487 581.154L418.883 588.157L485.069 620.916C497.899 624.514 504.315 628.825 504.315 633.85V685.019C504.315 691.867 516.356 707.386 540.437 731.577L562.685 709.369L562.188 706.461C560.071 693.933 559.012 685.552 559.012 681.319C559.012 676.767 580.778 659.485 624.31 629.475L643.355 611.521L641.324 605.338C653.067 605.894 665.801 613.135 668.634 622.214C673.357 627.969 673.569 644.138 676.825 651.875C818.523 674.459 840.035 785.074 857.091 910.653C879.653 1038.08 930.873 1165.24 908.638 1296.36C911.535 1300.56 913.819 1304.64 915.931 1309.49C920.992 1318.11 914.473 1330.32 904.265 1329.84C891.052 1328.68 877.969 1327.09 864.694 1326.6C827.893 1325.32 791.059 1325.47 754.244 1325.94L749.224 1326.01C563.687 1328.32 378.161 1332.88 192.617 1334.08C185.885 1334.09 182.59 1328.05 183.489 1322.09C185.299 1310.08 186.978 1298.07 188.731 1286.06C144.845 1297.67 98.1901 1300.59 54.4281 1287.28C51.3667 1284.16 61.5611 1285.85 63.1784 1285.38C22.9037 1257.82 34.9312 1199.77 38.4989 1157.96C60.6829 1014.68 68.5035 856.164 154.215 733.908C191.295 684.015 245.658 644.514 308.125 635.625L309.858 635.388L311.604 635.16C329.411 632.89 348.987 631.848 364.449 622.214C381.937 608.236 389.653 582.721 407.487 581.154ZM566.076 881.494C559.585 881.494 546.29 891.588 526.192 911.776L524.422 912.595C500.127 923.895 484.032 933.696 476.138 942L475.856 942.3C467.881 950.867 452.088 973.647 428.477 1010.64L394.285 1030.89H381.348L372.137 1097.79L394.285 1145.55L444.452 1128.63L526.192 1107.06L573.097 1059.41L599.556 1050.52C596.346 1059.8 595.182 1069.04 599.172 1078.26C606.071 1091.85 626.82 1098.78 640.615 1103.4C669.196 1114.39 718.997 1102.99 735.603 1078.26C744.461 1065.07 754.723 1031.8 760.004 1021.48L761.519 1000.21C764.249 960.968 766.275 920.357 757.765 914.438C717.944 886.738 615.079 900.656 612.724 902.207C607.539 905.622 605.306 905.924 602.502 910.358L601.05 910.553L609.214 899.467L606.323 897.922C585.698 886.97 572.282 881.494 566.076 881.494ZM599.172 917.707C595.483 933.635 605.718 945.158 610.558 960.543L598.191 936.838L598.191 918.015C598.511 917.936 598.838 917.834 599.172 917.707Z" fill="#282D49"/>
<path fill-rule="evenodd" clip-rule="evenodd" d="M402.022 578.68C404.772 576.243 408.84 579.306 407.093 582.599C403.167 590 399.14 597.012 393.871 603.554C390.677 607.521 387.255 611.272 383.787 614.982C392.687 622.691 400.319 632.262 407.526 641.232C416.743 652.704 425.456 664.662 435.802 675.159C446.006 685.512 457.288 692.749 470.929 697.575L473.684 698.533C487.388 703.35 502.034 709.856 509.758 722.847C511.282 725.409 508.215 728.575 505.636 726.976C492.214 718.654 476.443 716.981 461.833 711.482C447.72 706.171 435.417 697.996 424.546 687.564C413.694 677.148 404.582 665.298 395.078 653.698C385.679 642.229 375.559 632.432 364.442 622.728C347.286 634.284 327.703 639.313 307.791 644.252L305.617 644.791C285.681 649.733 265.851 655.473 247.147 664.079C230.657 671.666 214.437 680.727 201.004 693.074C186.745 706.177 175.648 722.912 165.49 739.278C142.769 775.892 126.795 816.006 112.732 856.606C98.1055 898.837 85.8713 941.913 75.9949 985.501C70.9717 1007.67 66.8921 1030 63.5391 1052.49C61.9252 1063.32 60.4915 1074.17 59.2323 1085.05C57.8881 1096.66 57.5793 1108.61 54.0209 1119.78C52.4953 1124.56 48.8933 1126.55 45.2877 1126.38L44.5554 1135.55C43.5843 1147.78 42.6791 1160.01 42.3733 1172.31C41.866 1192.77 42.096 1213.17 43.5656 1233.58L43.7737 1236.36C44.9285 1251.26 47.5089 1268 58.6974 1278.91C70.2841 1290.21 88.1028 1293.76 103.72 1293.96C140.093 1294.44 175.106 1277.23 207.292 1262.13C240.441 1246.59 272.684 1229.33 304.155 1210.61C320.181 1201.08 336.035 1191.23 351.686 1181.09C359.367 1176.12 366.993 1171.06 374.563 1165.92C378.898 1162.97 383.006 1159.74 387.42 1157.13C385.257 1155.12 384.292 1151.95 386.103 1149.18C373.345 1138.09 368.035 1118.3 367.414 1102.29C366.912 1089.36 368.812 1076.47 370.311 1063.67C371.067 1057.22 372.002 1050.77 372.972 1044.34C373.355 1041.8 373.648 1039.09 374.095 1036.41C339.644 1055.37 304.227 1072.25 267.872 1087.25C249.237 1094.93 230.364 1101.85 211.23 1108.18L207.352 1109.46C189.222 1115.4 170.659 1121.01 151.916 1124.41C150.914 1124.59 150.1 1123.11 151.17 1122.64C169.435 1114.57 188.333 1107.76 206.872 1100.33L209.919 1099.09V1099.09C209.569 1099.07 209.206 1099.02 208.827 1098.93C197.954 1096.3 187.167 1092.25 176.503 1088.84C166.606 1085.68 155.486 1083.69 146.235 1078.91C145.524 1078.55 145.922 1077.56 146.615 1077.51C157.013 1076.79 168.3 1079.82 178.494 1081.61L182.324 1082.28C188.74 1083.41 195.297 1084.63 201.682 1086.22C201.912 1084.08 203.107 1081.93 204.807 1080.66C223.514 1066.79 221.615 1038.78 223.615 1018.12L225.099 1002.78C227.709 975.932 230.469 949.092 234.664 922.449C234.888 921.026 237.086 921.434 237.095 922.777C237.311 955.804 234.821 988.679 233.573 1021.65L233.38 1027.06C232.69 1047.41 232.149 1068.54 219.351 1084.2C221.141 1083.15 223.56 1083.15 225.01 1084.88C226.792 1087 227.82 1089.38 227.788 1091.72C239.353 1086.87 250.867 1081.88 262.326 1076.8C299.165 1060.46 335.231 1042.17 370.344 1022.38C374.123 1020.26 377.715 1021.93 379.583 1024.74L379.853 1024.7C379.898 1024.69 379.944 1024.69 379.991 1024.69L380.258 1024.67C380.269 1024.67 380.279 1024.68 380.288 1024.68C385.231 1021.96 391.965 1023.89 396.206 1027.86C396.331 1027.98 396.438 1028.11 396.549 1028.23C401.919 1025.82 406.933 1022.56 411.483 1018.43C420.795 1009.98 428.682 999.533 435.558 989.055C448.22 969.757 458.976 948.297 476.081 932.411C489.978 919.505 507.208 911.47 525.284 906.425C525.208 905.896 525.41 905.333 525.775 904.958C526.704 904.006 527.366 903.676 528.565 904.254C528.661 904.301 528.718 904.365 528.757 904.434L530.521 901.417C531.484 899.779 532.472 898.13 532.815 897.697C534.867 895.109 536.979 892.542 539.124 890.028C542.759 885.772 546.902 881.572 551.699 878.62C562.202 872.16 573.243 875.816 584.042 879.347C590.566 881.481 597.069 883.685 603.582 885.851L604.254 886.071C609.111 887.633 614.794 889 616.965 894.152C617.825 896.191 617.958 898.307 617.558 900.36C663.684 888.614 714.917 894.011 759.929 907.799C761.657 908.327 763.382 909.75 763.746 911.619C768.903 938.102 771.2 965.261 768.866 992.195C766.853 1015.44 761.708 1038.23 752.013 1059.51L751.462 1060.72C742.351 1080.44 727.91 1104.76 705.855 1110.94C692.539 1114.68 677.81 1112.47 664.228 1111.79C651.029 1111.13 637.537 1111.03 624.462 1108.95C612.818 1107.1 602.616 1101.87 595.42 1092.39C589.212 1084.21 585.943 1074.33 583.265 1064.5C582.039 1064.89 580.821 1065.3 579.622 1065.77C574.564 1067.75 570.277 1070.94 566.402 1074.7C558.219 1082.64 551.871 1092.27 543.309 1099.85C535.558 1106.7 526.727 1112.03 517.253 1116.13C497.623 1124.62 476.564 1128.02 455.799 1132.52L454.351 1132.83C438.719 1136.27 422.764 1140.49 408.966 1148.64C408.696 1151.03 407.605 1153.29 405.855 1154.77C408.289 1157.06 409.319 1160.68 407.181 1164.08C401.208 1173.57 390.918 1178.97 381.681 1185.04L381.08 1185.44C371.994 1191.47 362.828 1197.39 353.587 1203.18C334.802 1214.95 315.624 1226.08 296.176 1236.72C264.895 1253.83 232.942 1269.97 200.411 1284.61C202.363 1294.23 201.65 1304.15 203.118 1313.83L203.343 1315.21C203.97 1318.81 203.123 1321.81 200.651 1324.16L200.389 1324.4L200.394 1324.37L200.162 1324.58L200.084 1324.65L200.11 1324.63C199.825 1324.89 199.531 1325.13 199.232 1325.34L198.85 1325.59V1325.59C196.469 1327.04 193.403 1327.02 190.966 1325.74L190.687 1325.59L190.219 1325.32C186.998 1323.46 184.777 1318.87 186.113 1315.21C189.397 1306.24 190.638 1296.66 193.671 1287.63L191.265 1288.71V1288.71L188.093 1290.09C153.797 1304.94 115.7 1317.44 78.332 1307.32C61.8208 1302.85 46.3886 1293.38 38.1272 1277.96C29.9979 1262.78 28.8488 1245.15 28.4172 1228.27C27.8846 1207.43 29.0004 1186.27 31.745 1165.61C33.5873 1151.74 35.8154 1137.61 39.2521 1123.89C37.4844 1122.33 36.185 1120.09 35.8418 1117.31C34.2198 1104.2 37.0585 1090.57 38.7964 1077.53C40.4942 1064.8 42.3698 1052.09 44.4911 1039.42C48.7739 1013.84 53.75 988.31 59.5434 963.026C69.8537 918.027 83.4688 873.828 99.8606 830.684L101.296 826.926C116.443 787.493 133.981 748.899 158.402 714.257C170.084 697.683 182.433 682.656 198.939 670.712C214.404 659.522 231.847 651.465 249.848 645.307C267.869 639.144 286.391 635.014 305.241 632.445C324.384 629.836 344.59 628.236 362.448 620.374C360.189 616.319 362.128 610.845 365.929 608.33C378.724 599.866 390.555 588.855 402.022 578.68ZM811.595 946.736C812.131 945.922 813.404 946.437 813.169 947.401C806.946 972.927 801.105 998.506 797.29 1024.52C790.404 1071.47 791.671 1119.04 792.234 1166.34L792.262 1168.78C792.552 1194.26 792.953 1219.74 793.795 1245.21C794.22 1258.08 795.06 1271.07 794.603 1283.95C794.354 1290.94 792.494 1297.54 791.835 1304.45C791.258 1310.48 791.772 1316.61 792.06 1322.65C792.253 1326.67 786.33 1326.5 785.927 1322.65L785.412 1317.68C784.743 1311.38 783.916 1305.12 781.855 1299.1C779.376 1291.85 778.187 1284.73 777.327 1277.12C776.01 1265.45 775.425 1253.67 774.916 1241.93L774.569 1233.8C772.446 1184.72 772.521 1135.41 775.957 1086.37L776.208 1082.87C779.61 1036.52 785.514 986.448 811.595 946.736ZM678.951 654.625C677.326 653.956 677.895 651.496 679.695 651.924L682.968 652.706C706.953 658.458 730.502 664.691 752.889 675.395C775.29 686.105 794.255 702.094 809.325 721.755C838.619 759.973 850.792 806.419 860.402 852.822C871.082 904.384 880.806 956.135 891.579 1007.68L893.579 1017.28C903.548 1065.29 912.959 1113.33 919.894 1161.91L920.392 1165.43C927.385 1215.38 931.591 1267.07 923.961 1317.15C922.451 1327.06 905.984 1324.59 906.628 1314.8C908.487 1286.5 909.819 1258.35 908.532 1229.98C907.244 1201.61 904.587 1173.37 900.625 1145.25C897.292 1121.58 892.322 1098.21 887.925 1074.73L887.235 1071.02C883.553 1051.05 879.757 1031.1 875.969 1011.15L870.308 981.285C861.824 936.559 853.174 891.794 843.4 847.349L842.82 844.734C833.255 801.974 819.153 757.183 790.461 723.228C761.345 688.769 719.664 671.414 678.951 654.625ZM573.154 1108.17C573.854 1106.61 576.303 1106.78 577.057 1108.17C580.007 1113.62 580.335 1120.58 580.893 1126.73L580.951 1127.36C581.661 1134.87 582.289 1142.41 582.673 1149.94C583.402 1164.24 583.751 1178.52 583.706 1192.83C583.66 1207.5 583.365 1222.16 582.576 1236.8L582.361 1240.73C581.64 1253.46 580.431 1267.66 574.39 1278.79C572.194 1282.83 566.222 1281.65 564.95 1277.55C560.783 1264.16 562.923 1248.27 563.991 1234.55L564.821 1223.84C565.643 1213.14 566.427 1202.42 567.048 1191.7C567.9 1177.04 568.602 1162.36 569.278 1147.68C569.498 1142.92 569.736 1138.15 569.986 1133.38L570.372 1126.24C570.702 1120.26 570.674 1113.7 573.154 1108.17ZM104.646 1127.16L106.491 1125.37C112.153 1119.82 119.309 1111.28 127.68 1111.81C131.018 1112.02 133.145 1114.79 132.453 1118.08C130.974 1125.11 123.813 1128.76 118.658 1133.05C113.01 1137.75 107.687 1142.77 102.375 1147.85C97.6619 1152.34 93.1294 1156.97 88.7056 1161.74L87.0517 1163.53C85.466 1165.27 74.1741 1175.49 75.395 1178.15L75.4615 1178.27C75.8012 1178.77 75.2353 1179.47 74.6717 1179.3C69.7955 1177.75 70.0997 1173.57 71.9432 1169.33C75.4856 1161.18 81.6887 1153.64 87.1056 1146.69C92.5079 1139.75 98.355 1133.28 104.646 1127.16V1127.16ZM590.823 922.85C587.053 913.926 573.162 914.113 565.276 914.647C545.418 915.99 523.931 921.021 506.262 930.315C487.943 939.95 475.604 955.389 464.563 972.46L464.046 973.262C453.285 990.011 442.92 1009.84 426.07 1021.36C417.487 1027.22 407.465 1032.58 397.051 1034.9C396.336 1036.16 395.178 1037.16 393.659 1037.52L392.953 1037.68C389.987 1038.34 385.379 1039.06 381.399 1038.63C381.426 1040.58 381.405 1042.51 381.455 1044.36C381.595 1049.65 381.654 1054.97 381.654 1060.26C381.657 1071.36 381.061 1082.48 381.523 1093.58C381.933 1103.39 383.318 1113.65 388.024 1122.42C391.476 1128.86 396.032 1133.12 401.531 1137.18C415.06 1128.93 430.358 1123.89 445.884 1120.11C464.661 1115.53 483.887 1112.48 502.238 1106.28C511.069 1103.29 519.56 1099.38 527.253 1094.07C535.418 1088.43 541.655 1080.81 548.072 1073.34L549.074 1072.19C555.623 1064.67 562.768 1057.47 572.023 1053.39C579.993 1049.88 590.497 1049.26 597.466 1043.82C601.11 1040.98 601.415 1036.85 601.798 1032.63C597.335 1033.26 592.611 1032.24 588.163 1031.72L585.858 1031.45C581.652 1030.95 577.543 1030.4 573.402 1029.33C572.633 1029.13 572.633 1027.97 573.402 1027.77C578.295 1026.5 583.145 1025.96 588.163 1025.37L589.341 1025.23C593.88 1024.63 598.651 1023.73 603.104 1024.73C603.902 1021.69 605.056 1018.78 606.675 1015.87C608.946 1011.78 613.245 1007.15 613.826 1002.37C613.999 1000.95 613.668 999.265 612.996 998.004L612.765 997.574C612.482 997.067 612.148 996.556 611.659 996.24C611.605 996.303 611.49 996.376 611.241 996.454C607.814 997.534 604.825 995.855 603.239 993.267C596.504 994.103 589.154 993.822 582.839 994.101L576.453 994.41C569.63 994.723 562.497 994.861 556.085 993.48C555.19 993.288 554.919 991.796 555.815 991.413C563.698 988.037 573.26 986.96 581.699 985.663C586.412 984.938 591.16 984.386 595.887 983.748C599.034 983.323 602.375 982.621 605.636 982.452C613.812 972.26 609.407 956.183 598.028 951.795C593.883 953.619 590.155 952.558 585.627 952.168C581.107 951.78 576.575 951.516 572.036 951.536C562.941 951.576 553.304 953.972 544.297 952.941C542.833 952.772 541.471 950.82 542.928 949.629C549.822 943.996 559.702 942.159 568.453 940.959L570.267 940.716C573.201 940.331 576.769 939.769 580.469 939.434C581.306 937.8 582.808 936.564 585.063 936.257C585.734 936.165 586.408 936.111 587.08 936.054L587.07 935.987V935.987C592.571 935.723 592.332 926.42 590.823 922.85ZM214.237 1096.89C214.14 1097.04 214.034 1097.19 213.92 1097.33L213.746 1097.53L214.65 1097.16L214.237 1096.89V1096.89ZM686.812 902.909C663.659 900.418 640.473 900.944 617.251 901.613C615.394 907.695 608.929 912.879 602.665 913.074C607.571 920.551 608.077 930.67 604.637 938.6C611.941 941.511 618.234 946.741 622.054 954.189C627.351 964.514 626.658 976.003 621.423 985.545C625.891 989.595 628.528 996.173 628.264 1002.37C627.969 1009.29 623.854 1015.19 620.434 1020.92C616.739 1027.11 616.615 1032.56 615.48 1039.49C613.819 1049.64 606.985 1055.79 598.191 1059.63L598.658 1061.48C600.925 1070.31 603.746 1079.64 610.226 1086.1C618.562 1094.41 631.494 1094.33 642.507 1094.86L643.039 1094.89C653.123 1095.39 663.204 1095.98 673.285 1096.55L680.846 1096.98C692.454 1097.62 703.601 1097.69 713.077 1090.01C728.547 1077.47 739.152 1056.71 745.865 1038.34C759.954 999.767 760.123 957.442 753.656 917.273C731.967 910.273 709.462 905.346 686.812 902.909ZM494.267 966.897L494.437 966.909C499.204 967.454 502.479 971.319 503.645 975.904C505.34 982.568 504.509 988.593 508.585 994.609C512.778 1000.8 515.356 1005.75 515.966 1013.39C516.216 1016.53 516.101 1019.67 516.8 1022.75L517.307 1024.91C517.845 1027.21 518.286 1029.42 518.018 1031.89C517.774 1034.14 516.679 1035.89 514.423 1036.62C507.073 1038.97 501.398 1033.55 499.499 1026.69C497.859 1020.77 500.049 1013.71 497.735 1008.14C496.453 1005.06 494.088 1002.48 492.752 999.376C491.428 996.299 490.764 993.084 490.551 989.739C490.149 983.413 495.737 975.812 492.619 970.08C491.955 968.857 492.707 966.86 494.267 966.897ZM396.636 901.614C401.613 900.602 407.26 898.281 412.168 900.21C414.691 901.203 415.938 904.283 413.806 906.424C410.105 910.139 404.726 910.346 399.741 911.222L399.302 911.301C393.408 912.393 387.503 913.429 381.591 914.41C370.466 916.255 359.316 917.886 348.126 919.272C336.634 920.696 325.109 921.964 313.568 922.918L309.1 923.285C299.351 924.066 289.207 924.654 279.642 923.159C278.252 922.942 278.476 920.916 279.642 920.561C290.121 917.385 301.616 916.533 312.45 915.189C323.968 913.758 335.466 912.247 346.935 910.454C358.385 908.663 369.82 906.742 381.213 904.617C386.362 903.659 391.504 902.658 396.636 901.614ZM576.228 891.418C571.86 889.869 567.055 887.575 562.323 888.343C554.161 889.667 546.897 897.629 540.437 902.872L543.681 902.241C560.278 899.047 582.258 895.606 596.191 906.172C596.227 906.111 596.254 906.05 596.294 905.99C597.419 904.279 598.722 902.945 600.144 901.482C600.28 901.353 600.412 901.221 600.541 901.086L601.308 900.268L599.553 899.659C595.794 898.329 591.341 896.611 590.637 896.36L590.588 896.343C585.796 894.718 580.998 893.111 576.228 891.418ZM439.857 543.07C439.174 534.274 452.847 534.346 453.524 543.07C455.001 562.115 450.721 580.98 441.508 597.677C441.44 597.799 441.365 597.907 441.294 598.022C447.057 601.024 452.884 603.904 458.842 606.479C466.463 609.773 474.227 612.773 482.13 615.318C489.279 617.621 498.087 618.53 504.097 623.323C516.771 633.429 512.01 654.4 509.572 667.994L509.191 670.14C507.977 677.135 507.099 684.312 510.045 691.025C513.19 698.196 519.55 703.515 525.224 708.646L526.37 709.687C531.397 714.272 537.141 719.844 540.828 726.059C544.193 719.092 548.781 713.398 553.632 706.988C557.093 702.413 554.63 700.905 552.143 696.436C549.75 692.135 548.582 687.551 549.33 682.644C550.711 673.582 557.944 667.036 565.143 662.118C573.646 656.313 583.135 652.012 591.925 646.611C609.985 635.515 627.575 622.828 643.421 608.738C643.858 608.348 644.616 608.858 644.266 609.39C631.748 628.455 617.07 644.929 599.031 658.913C591.717 664.583 584.033 669.286 576.298 674.23L574.074 675.659C570.968 677.673 567.094 680.366 565.69 683.796C564.277 687.245 567.29 689.849 568.912 692.707C574.062 701.781 571.577 710.247 565.471 717.942L565.187 718.297C559.119 725.784 554.521 732.747 552.321 742.312C547.596 762.859 554.178 784.262 561.068 803.551L561.34 804.312C565.067 814.709 569.029 825.03 572.267 835.594L573.158 838.515C576.092 848.235 578.495 857.821 575.203 867.814C574.084 871.212 569.455 872.016 567.532 868.817C560.749 857.537 559.058 843.963 554.807 831.561C550.663 819.474 545.905 807.606 541.902 795.469C536.748 779.844 533.299 763.023 535.171 746.633C535.116 746.538 535.055 746.448 535.009 746.347L533.697 743.474C530.119 735.693 526.664 728.897 520.158 722.695C513.371 716.225 506.005 710.498 500.665 702.666C489.066 685.654 496.24 666.729 497.641 648.128L497.801 645.847C498.056 641.985 498.195 636.736 495.675 634.063C492.841 631.054 486.195 630.286 482.435 628.954C472.717 625.51 463.14 621.498 454.019 616.68C445.336 612.094 436.925 607.027 429.094 601.092L425.125 598.102C418.863 593.371 412.369 588.204 408.172 581.764C407.688 581.023 408.511 579.826 409.388 580.181C416.394 583.028 422.796 587.557 429.352 591.497C429.454 591.257 429.572 591.014 429.706 590.77C437.817 576.072 441.153 559.788 439.857 543.07ZM663.676 643.773C666.468 636.108 679.191 636.7 678.683 645.808C678.294 652.805 675.328 659.12 672.615 665.473L672.325 666.154C669.524 672.773 666.29 678.988 662.419 685.054C655.023 696.652 646.36 707.414 637.107 717.571C628.718 726.78 617.708 732.411 605.02 731.476C599.674 731.081 594.278 729.719 589.594 727.046C584.03 723.869 577.987 714.33 570.889 716.64C570.202 716.863 569.562 715.857 570.155 715.38C578.35 708.772 587.651 719.017 595.497 721.486C607.319 725.205 619.451 721.093 627.061 711.523C635.005 701.532 642.317 690.345 648.995 679.466C652.385 673.942 655.479 668.209 658.151 662.3C660.848 656.336 661.461 649.855 663.676 643.773ZM644.62 596.6C644.275 595.541 645.588 594.534 646.517 595.139C651.902 598.649 656.568 603.287 661.535 607.352C667.046 611.862 672.597 616.281 678.234 620.631C686.452 626.975 676.921 638.652 669.687 631.723C659.788 622.244 648.946 609.849 644.62 596.6ZM615.056 559.498C617.243 551.052 630.182 554.535 628.296 562.883L628.235 563.137C624.663 576.926 629.75 590.964 640.607 599.903L641.007 600.228C647.876 605.732 638.144 615.355 631.343 609.903C616.495 598.005 610.318 577.793 615.056 559.498Z" fill="black"/>
<path fill-rule="evenodd" clip-rule="evenodd" d="M710.489 241.267C711.737 229.63 698.161 198.583 698.488 204.881C676.722 171.205 634.245 157.962 597.596 146.845C519.795 121.074 459.041 152.198 404.377 207.36C372.105 237.608 341.397 271.396 325.197 313.27C293.327 393.149 341.099 484.233 413.747 522.392C419.61 525.576 425.998 528.599 431.581 532.445C461.613 549.855 496.878 555.877 530.343 563.455C592.95 577.814 671.578 570.971 708.473 511.162C733.498 468.715 726.85 417.259 724.891 370.152C721.949 328.879 716.783 282.238 710.489 241.267Z" fill="#FFE2CE"/>
<path d="M530.56 69.3824C475.747 66.1572 415.796 84.5979 375.236 122.645C369.441 128.079 364.11 134.147 359.177 140.62C352.724 146.801 346.6 153.323 340.88 160.165C301.338 207.452 279.483 266.921 271.178 327.584C266.905 358.812 265.817 390.364 267.765 421.823C269.655 452.281 275.863 482.625 274.397 513.244C273.721 527.152 271.224 541.427 264.385 553.714C257.942 565.298 247.804 573.255 237.765 581.476L235.76 583.125C225.611 591.517 214.81 601.264 211.373 614.55C207.639 628.964 213.859 643.492 226.081 651.584C238.28 659.663 254.133 660.329 267.455 654.928C275.202 651.784 282.02 647.2 288.338 641.769C294.978 646.18 303.503 648.408 311.648 647.921C318.928 647.485 327.299 645.572 335.016 642.202C341.521 647.036 350.24 648.718 358.206 648.456C368.051 648.133 379.052 645.366 387.93 639.863C391.971 640.977 396.269 641.467 400.639 641.251C421.578 640.205 439.71 621.263 444.555 601.655C448.679 584.965 449.255 562.894 444.555 548.385C439.698 533.392 429.487 526.233 429.487 526.233C429.487 526.233 421.52 497.371 409.321 479.234C407.168 476.039 404.945 472.913 402.62 469.844C400.1 464.511 397.338 459.28 394.224 454.349C391.943 450.753 389.424 446.971 386.525 443.546C387.376 442.516 388.173 441.368 389.007 440.165L389.103 440.028C390.868 437.489 389.058 433.706 386.251 432.983C383.709 432.339 381.532 431.12 378.886 430.811C376.309 430.499 373.616 430.638 371.039 430.453C366.538 430.144 362.197 428.857 358.245 426.673C357.947 426.512 357.649 426.339 357.363 426.155C357.351 426.167 357.351 426.167 357.34 426.143C357.029 425.972 356.71 425.775 356.412 425.593C347.993 420.236 342.929 411.695 341.051 401.811C339.001 390.995 340.822 378.951 345.358 368.961C348.508 362.032 354.843 352.962 362.437 350.641C369.447 353.09 379.092 362.285 385.186 355.228C387.075 353.044 387.454 349.629 385.186 347.481C384.075 346.435 382.655 345.491 381.097 344.653C381.91 343.491 382.712 342.33 383.502 341.171C384.717 339.642 385.862 338.067 386.881 336.435C387.361 335.665 387.844 334.895 388.348 334.125L388.405 334.021L392.074 328.628C400.617 316.032 409.033 303.351 417.362 290.608C423.684 286.092 429.917 281.437 436.067 276.713C466.285 253.541 494.485 227.554 519.08 198.406C526.96 189.062 534.498 179.406 541.611 169.452C567.418 175.269 593.832 178.993 619.262 186.234C635.871 190.97 652.343 196.739 667.382 205.37C674.657 209.544 681.541 214.337 687.566 220.198C690.396 222.957 693.042 225.899 695.378 229.083C698.15 232.863 700.132 234.53 704.405 235.784C704.76 236.611 705.275 237.428 705.939 238.198L708.731 240.435C709.407 240.624 711.035 241.256 712.205 241.404C716.478 241.749 720.991 239.185 723.144 235.117C726.394 228.982 723.825 220.344 722.526 213.788L722.116 211.637C719.57 198.571 715.074 185.891 709.376 173.866C697.44 148.671 678.792 127.432 654.668 113.409C649.852 110.607 644.879 108.03 639.793 105.649C632.254 100.121 624.078 95.4274 615.687 91.4172C588.858 78.5935 560.247 71.1295 530.56 69.3824Z" fill="#62442E"/>
<path d="M717.385 543.019C716.356 538.919 715.896 535.207 714.529 531.909C710.071 535.042 699.98 542.134 695.285 545.437C690.59 548.74 671.504 557.205 662.549 561.024C656.462 563.22 642.281 568.163 634.247 570.362C626.212 572.56 614.571 574.286 609.755 574.874C603.455 586.401 604.45 600.665 610.854 612.286C612.618 615.482 614.806 618.332 617.337 620.826C625.104 628.526 636.009 632.872 646.959 633.401C647.246 633.526 647.544 633.652 647.841 633.768L648.505 634.037C658.024 637.87 667.876 640.785 678.254 639.549C685.137 638.734 691.346 635.714 696.161 631.342C702.414 633.311 709.171 633.078 715.483 631.234C722.724 634.606 730.509 636.345 738.07 631.928C745.733 627.458 750.269 618.171 749.983 609.401C749.658 599.697 743.041 592.615 734.938 588.274C733.688 584.03 731.72 579.871 729.686 575.77L727.808 572.002L725.401 566.254C724.601 564.356 723.792 562.462 722.985 560.569L722.637 559.754C720.663 554.247 718.809 548.692 717.385 543.019Z" fill="#62442E"/>
<path fill-rule="evenodd" clip-rule="evenodd" d="M547.776 71.1515C509.678 65.9915 481.911 70.8078 449.657 79.1546C393.109 93.7885 330.281 125.512 312.677 185.209C309.328 196.564 301.209 208.21 293.106 219.834C279.738 239.008 266.414 258.121 274.617 275.76C260.605 285.165 255.347 349.311 258.748 383.024C260.488 400.274 262.973 412.325 265.405 424.118C267.726 435.373 269.999 446.394 271.529 461.475C271.819 464.324 272.097 466.92 272.359 469.361C273.512 480.102 274.343 487.848 274.343 500.972C274.343 507.734 273.002 514.853 271.911 520.646C270.243 529.503 269.159 535.26 274.343 531.904C275.889 530.902 284.94 515.843 284.94 509.07C289.211 491.194 284.992 458.63 281.756 433.65C281.535 431.951 281.32 430.286 281.112 428.663C277.854 412.826 274.612 392.588 274.612 392.588C274.424 378.965 277.096 291.615 289.226 285.916C293.224 284.038 294.014 278.458 292.098 274.93C284.037 260.09 296.021 243.762 308.196 227.174C316.119 216.379 324.123 205.474 326.735 194.798C333.197 168.393 353.287 147.861 374.562 131.357C419.934 96.1574 482.543 83.3637 538.811 85.2245C551.568 85.6458 562.317 87.9028 574.004 90.3567L574.004 90.3567L574.004 90.3568L574.004 90.3568C577.558 91.103 581.198 91.8674 585.008 92.6038C601.375 95.7676 622.919 105.063 640.229 112.531L640.239 112.535L640.845 112.796L642.18 113.372C653.945 119.38 657.861 115.365 656.622 114.429C629.784 92.6038 585.436 76.2519 547.776 71.1515ZM717.5 263.911L715.565 253.567C715.076 250.951 714.396 248.348 713.716 245.749L713.716 245.748L713.716 245.748L713.716 245.748L713.716 245.747L713.716 245.747L713.716 245.747L713.714 245.739C713.507 244.946 713.3 244.154 713.099 243.362L712.94 242.728C714.347 242.834 716.255 242.594 718.687 241.344C720.523 240.094 722.342 238.533 723.2 236.667C723.205 236.656 723.218 236.633 723.239 236.598C723.534 236.09 725.318 233.031 724.99 227.133C724.825 224.161 723.026 214.122 720.983 206.312C719.758 201.629 717.177 192.805 713.846 184.9C711.422 178.173 709.292 172.261 706.228 167.149C705.356 165.695 704.453 164.111 703.553 162.53C702.031 159.857 700.513 157.193 699.152 155.173C698.905 154.807 698.632 154.393 698.341 153.95C695.992 150.386 692.424 144.972 691.474 147.75C688.187 152.471 692.809 162.395 696.725 170.807C698.385 174.371 699.917 177.662 700.669 180.172C702.427 186.043 704.96 192.846 707.225 198.932C709.969 206.304 712.321 212.624 712.435 214.965C712.725 220.971 708.011 224.115 706.898 224.115C701.286 224.115 698.93 220.479 695.325 214.913L695.324 214.912C694.599 213.792 693.823 212.594 692.96 211.333C689.602 206.423 680.609 199.61 671.417 193.91C661.95 188.038 643.613 181.141 624.977 175.27C610.134 170.594 606.857 169.887 586.315 165.633C574.09 163.102 563.683 162.154 556.171 161.471C551.835 161.076 548.464 160.769 546.264 160.296C539.941 158.936 538.249 155.974 537.027 153.835C536.221 152.425 535.62 151.373 534.033 151.373C528.414 153.001 526.075 159.293 523.286 166.792L523.286 166.793C522.081 170.034 520.793 173.5 519.12 176.912C515.073 185.167 510.96 189.936 505.715 196.019C504.618 197.291 503.471 198.621 502.266 200.052C500.943 201.622 467.665 235.723 456.719 245.314C449.819 251.361 442.78 256.311 436.125 260.991C430.274 265.106 424.72 269.012 419.818 273.27C407.281 281.866 399.757 290.395 396.738 293.818L396.738 293.818C395.762 294.924 395.257 295.497 395.205 295.366C391.481 286.045 384.879 278.042 375.837 273.27C374.802 272.725 373.818 274.008 374.6 274.878C382.552 283.728 386.779 295.228 386.984 307.099C387.078 312.54 386.467 317.762 384.742 322.94C384.077 324.937 383.724 326.499 383.41 327.889C382.812 330.539 382.355 332.565 380.138 335.786C375.346 342.75 380.805 346.68 385.376 345.533C390.995 341.233 397.336 330.269 398.387 320.461C399.342 319.463 401.071 317.217 404.462 312.786C410.015 305.528 415.097 297.995 418.337 292.732C420.991 290.389 424.276 287.942 428.291 284.95L428.291 284.95L428.291 284.949C437.063 278.413 449.32 269.279 466.106 252.967C480.272 241.219 490.392 230.955 500.521 220.682L500.523 220.68C504.097 217.055 507.673 213.429 511.427 209.736C525.207 196.183 536.55 178.733 540.136 173.217L540.136 173.217C540.804 172.19 541.202 171.577 541.298 171.479C541.334 171.401 565.66 175.503 592.726 181.149C605.659 183.847 613.683 186.071 622.748 188.584C623.919 188.908 625.107 189.238 626.326 189.573C646.556 195.149 648.802 196.174 661.905 203.248C671.146 208.237 676.38 211.232 684.329 218.108C688.018 221.299 691.38 225.377 694.115 228.695L694.115 228.695C696.439 231.514 698.31 233.785 699.546 234.496C701.187 235.736 703.205 236.916 704.538 236.916C704.538 236.916 705.315 240.114 709.311 241.725L709.257 242.234L709.223 242.595L709.177 243.081L709.175 243.109C708.995 244.993 708.816 246.884 708.772 248.808C708.704 251.841 708.706 254.884 708.708 257.923V257.927V257.927V257.927V257.928C708.709 259.437 708.71 260.945 708.703 262.451C708.693 264.38 708.678 266.31 708.664 268.24V268.246V268.252V268.257V268.263C708.611 275.424 708.558 282.594 708.738 289.749C709.049 302.203 709.798 314.67 710.618 327.118L711.613 342.046C712.447 354.651 713.525 367.256 714.604 379.864V379.864V379.865V379.865V379.865V379.866V379.866C716.368 400.493 718.133 421.126 718.83 441.778C719.757 469.639 717.237 500.706 698.211 522.728C689.574 532.74 678.864 540.406 667.077 546.267C654.798 552.358 640.834 557.279 627.433 559.98C609.479 563.611 590.576 563 572.327 561.999L569.724 561.853C567.679 561.739 565.621 561.643 563.559 561.547H563.558C556.496 561.217 549.372 560.884 542.439 559.807C538.029 559.127 533.766 557.664 529.524 556.208C527.178 555.404 524.839 554.601 522.485 553.934C520.744 553.44 518.842 554.831 518.889 556.681C519.215 571.149 536.371 573.128 548.004 573.968L552.243 574.257C570.22 575.445 588.275 576.368 606.299 575.853C607.029 575.834 612.273 575.387 617.157 574.97L617.163 574.97C621.324 574.615 625.223 574.283 625.845 574.257C638.891 572.831 645.227 570.877 662.697 565.129C669.735 562.813 690.475 552.838 696.771 547.792C696.771 547.792 701.476 543.848 709.829 537.072L715.14 532.738C729.48 514.848 736.868 492.857 738.439 468.754C739.482 452.685 738.28 436.547 736.745 420.549L735.853 411.255C734.358 395.765 732.82 380.27 731.178 364.792C728.887 343.149 726.287 321.541 723.411 299.977C722.037 289.621 720.319 279.359 718.452 269.083C718.138 267.359 717.82 265.635 717.5 263.911ZM709.311 241.725C709.589 241.837 709.883 241.942 710.194 242.037C710.283 242.064 710.394 242.106 710.526 242.156C711.024 242.343 711.825 242.644 712.94 242.728L712.816 242.234C711.668 242.11 710.042 241.449 709.373 241.133L709.311 241.725ZM390.069 386.803C384.593 379.792 373.574 373.147 364.387 375.941C358.11 377.836 352.165 384.182 352.612 390.986C352.681 392.008 354.307 392.389 354.514 391.25C355.716 384.527 362.543 383.837 367.641 386.596C370.969 388.395 373.284 391.679 375.521 394.851L375.521 394.851C376.441 396.155 377.347 397.44 378.305 398.595C381.203 402.077 387.068 401.538 390.069 398.595C393.597 395.136 392.818 390.32 390.069 386.803ZM229.824 629.238C226.016 615.795 242.443 591.894 253.088 576.406C258.342 568.76 262.188 563.165 261.496 561.889C259.408 559.937 258.956 560.348 252.813 565.938C252.262 566.44 251.666 566.983 251.018 567.57C251.018 567.57 239.591 577.604 237.443 579.166C224.396 588.97 216.945 600.812 212.428 612.529C208.503 626.104 210.543 631.238 214.133 639.556C218.48 647.68 225.787 653.275 233.521 656.5C242.824 660.38 251.428 660.169 261.028 658.247C268.368 656.338 280.844 650.445 288.373 642.956C297.972 649.074 308.664 649.464 313.377 648.927L313.58 648.904C320.314 648.138 325.462 647.552 335.244 643.332C335.244 643.332 337.787 645.281 339.958 646.157C342.129 647.033 349.307 649.882 358.99 649.55C365.405 649.331 374.145 647.49 375.412 646.753C375.61 646.638 375.989 646.516 376.563 646.331C378.359 645.751 382.061 644.557 388.061 641.056C388.212 641.056 388.576 641.144 389.125 641.276L389.127 641.277C391.216 641.781 395.973 642.929 401.793 642.344C401.851 642.338 401.973 642.339 402.153 642.34C404.352 642.353 415.301 642.418 427.388 631.302C431.539 626.418 439.894 614.951 444.362 602.776C449.527 588.704 450.554 580.014 449.634 564.742C448.752 550.101 440.916 541.585 440.916 541.585C440.916 541.585 435.584 538.487 436.117 545.93C436.302 548.51 436.661 551.324 437.048 554.363C438.102 562.631 439.367 572.558 437.918 583.924C435.351 604.057 422.581 620.341 418.459 623.542C412.172 628.423 404.562 632.182 399.082 630.47C396.109 629.541 395.277 627.693 394.473 625.909C393.753 624.31 393.056 622.763 390.865 621.97C388.379 621.071 385.956 622.866 383.986 624.326C383.682 624.551 383.389 624.769 383.108 624.967C381.271 626.81 372.789 634.747 367.724 636.233C362.391 637.797 352.529 636.177 348.369 633.403C346.836 632.382 346.83 629.332 346.824 626.588C346.82 624.581 346.816 622.738 346.216 621.97C343.684 618.731 338.52 622.446 333.043 628.789C328.746 633.764 323.141 636.622 319.599 637.454C310.835 639.51 300.332 638.721 295.941 629.996C295.242 628.607 295.273 627.356 295.303 626.113C295.341 624.568 295.378 623.037 294.013 621.272C291.497 618.019 281.992 623.1 275.468 629.238C272.753 631.061 270.84 632.492 269.238 633.691C265.472 636.51 263.42 638.046 256.693 640.367C252.583 641.785 246.22 640.681 241.425 639.849C240.829 639.745 240.257 639.646 239.716 639.556C232.407 636.205 231.199 633.836 229.824 629.238ZM610.829 586.197C611.175 593.097 613.236 597.478 616.766 603.125C621.339 610.443 627.521 618.781 638 618.781L638.074 618.781C638.114 618.781 638.158 618.782 638.206 618.782C639.831 618.799 646.053 618.861 651.099 614.101C656.393 609.108 660.934 608.073 662.757 612.112C663.182 613.055 662.76 614.622 662.283 616.387C661.531 619.173 660.646 622.454 662.757 624.556C670.555 629.03 674.85 629.258 683.236 626.25C688.558 622.79 690.513 619.359 691.981 616.782C692.756 615.422 693.396 614.299 694.324 613.535C697.01 611.324 700.469 611.388 702.037 614.503C702.202 614.831 702.357 615.142 702.504 615.436C704.725 619.886 705.084 620.603 709.662 620.603C712.178 619.852 713.515 618.413 714.693 617.145C715.819 615.933 716.801 614.877 718.529 614.726C719.992 614.599 720.988 615.812 722.007 617.053C722.773 617.984 723.55 618.932 724.548 619.338C727.849 620.683 731.424 618.91 733.944 615.992C737.177 612.248 733.917 608.776 729.833 604.426C726.998 601.406 723.766 597.964 722.035 593.715C719.305 587.013 716.555 571.399 716.555 562.781C716.555 554.395 716.732 550.383 718.029 549.762C719.145 549.229 719.727 551.499 720.047 552.743C720.099 552.946 720.144 553.122 720.183 553.253C721.196 556.658 727.381 571.725 727.381 571.725L731.885 580.832L735.141 589.447C735.141 589.447 741.558 592.08 746.287 598.881C752.198 607.382 749.878 616.699 748.362 620.941C746.34 626.601 742.409 630.591 737.96 633.249C730.958 636.811 726.534 635.837 723.119 635.086L722.978 635.055C719.543 634.3 715.585 632.463 715.585 632.463C704.431 635.777 696.334 632.463 696.334 632.463C696.334 632.463 689.421 639.166 678.937 640.72C667.886 642.358 653.744 637.152 648.374 635.175C647.83 634.975 647.375 634.807 647.024 634.684C638.625 634.019 629.327 631.439 622.062 625.871C616.392 621.525 614.765 620.236 610.418 612.112C609.888 610.884 609.425 609.828 609.018 608.901C606.669 603.549 606.205 602.491 605.658 597.359C605.154 592.632 605.636 588.181 606.327 585.204L606.393 584.917C607.041 582.113 607.66 579.435 609.889 579.743C611.017 579.9 610.935 581.985 610.855 584.033V584.033V584.034V584.034C610.826 584.794 610.796 585.548 610.829 586.197ZM384.697 440.973C384.805 441.042 384.909 441.117 384.996 441.223C385.812 442.225 386.593 443.187 387.342 444.116C387.26 444.223 387.183 444.323 387.111 444.414L383.788 443.938L384.697 440.973ZM383.788 443.938L376.634 442.913L364.368 440.023L350.152 433.683L338.444 423.334L330.918 411.493C330.918 411.493 329.014 398.66 329.432 390.421C329.675 385.622 330.918 378.207 330.918 378.207L334.356 367.765L340.209 356.852L345.506 350.088C348.58 347.304 355.971 341.429 360.94 340.202C365.908 338.975 370.694 340.33 372.466 341.16L377.752 343.461L381.674 345.487C381.978 345.65 382.867 346.154 383.986 346.871C385.384 347.768 386.2 348.392 386.997 350.088C387.741 351.672 387.231 353.204 386.923 354.13C386.901 354.196 386.88 354.259 386.861 354.318C386.619 355.062 386.136 355.618 385.546 356.299C385.425 356.438 385.3 356.583 385.171 356.735C384.413 357.632 382.509 358.353 381.887 358.548C381.266 358.743 379.615 358.743 378.332 358.548C377.05 358.353 373.728 356.891 373.126 356.579C372.644 356.33 370.581 355.215 369.609 354.688L365.297 352.369L363.057 351.419C363.036 351.439 362.863 351.512 362.285 351.706C361.353 352.018 358.866 353.46 358.575 353.636C358.342 353.776 357.208 354.669 356.671 355.098C356.121 355.579 354.961 356.603 354.729 356.852C354.496 357.102 351.886 360.231 350.61 361.765L349.804 362.912C349.633 363.174 349.273 363.728 349.205 363.85C349.153 363.944 348.933 364.29 348.752 364.577C348.637 364.759 348.538 364.916 348.507 364.968C348.442 365.076 348.068 365.713 347.889 366.019L347.07 367.541L346.471 368.713L345.889 369.956L345.258 371.429L344.757 372.673L344.189 374.195L343.705 375.6L343.128 377.486L342.663 379.201L342.153 381.32L341.795 383.071C341.725 383.53 341.569 384.515 341.508 384.777C341.445 385.05 341.295 386.268 341.226 386.827C341.212 386.939 341.201 387.025 341.195 387.071C341.159 387.35 340.922 390.165 340.882 390.766C340.85 391.248 340.832 393.373 340.827 394.376L340.915 396.595C340.987 397.369 341.145 399.073 341.206 399.702C341.282 400.489 341.585 402.074 342.028 404.293C342.47 406.513 343.936 410.558 344.239 411.205C344.543 411.852 346.438 415.546 346.739 415.999C347.039 416.451 348.653 418.732 349.028 419.246C349.308 419.629 350.342 420.735 351.124 421.57C351.391 421.857 351.629 422.111 351.797 422.294C352.414 422.966 354.031 424.242 355.054 425.049L355.241 425.197C356.015 425.809 356.961 426.379 357.636 426.786C357.833 426.905 358.007 427.01 358.147 427.097C358.766 427.486 360.403 428.301 360.959 428.571C361.515 428.84 362.942 429.384 363.258 429.505L363.259 429.505C363.572 429.625 365.284 430.17 365.547 430.239C365.809 430.308 367.234 430.666 367.678 430.76C368.122 430.854 369.372 431.042 370.109 431.136C370.847 431.23 372.353 431.318 372.69 431.337C372.899 431.348 373.893 431.37 374.711 431.387C375.214 431.398 375.651 431.407 375.796 431.412C376.178 431.424 378.203 431.512 378.603 431.537C379.003 431.562 380.04 431.719 380.446 431.788C380.771 431.843 381.936 432.179 382.478 432.34C383.488 432.691 385.539 433.407 385.659 433.463C385.735 433.498 386.136 433.612 386.538 433.727C386.927 433.838 387.317 433.949 387.415 433.989C387.615 434.071 388.321 434.485 388.54 434.667C388.715 434.812 389.234 435.384 389.471 435.651C389.699 436.02 390.199 436.969 390.378 437.813C390.587 438.797 390.309 439.546 390.071 440.189C390.054 440.236 390.037 440.282 390.02 440.328C389.839 440.823 388.282 442.901 387.342 444.116C398.414 457.834 402.721 464.301 412.302 482.816C416.825 491.556 418.701 495.096 419.809 497.187L419.809 497.188L419.809 497.188C421.206 499.825 421.382 500.156 424.109 505.711C424.172 505.84 424.237 505.973 424.304 506.109L424.312 506.125C427.269 512.171 433.516 524.943 455.42 532.782L457.08 533.471C457.785 533.77 458.688 534.106 459.702 534.484C464.524 536.28 471.85 539.008 472.277 543.064C472.741 547.461 465.032 548.184 460.172 547.22C448.381 544.883 438.319 541.163 431.676 535.856C422.071 528.185 416.48 517.394 410.833 506.495C408.082 501.187 405.319 495.853 402.072 490.842L401.092 489.318C392.942 476.547 385.282 461.982 382.902 446.824L383.788 443.938Z" fill="black"/>
<path fill-rule="evenodd" clip-rule="evenodd" d="M637.864 490.707C629.408 493.159 620.332 493.379 611.712 490.846C603.894 488.548 595.867 483.493 590.113 476.803C585.002 470.86 581.691 463.638 581.821 455.929C581.836 455.049 582.15 454.314 582.634 453.743C583.155 453.129 583.882 452.707 584.661 452.524C585.462 452.336 586.309 452.403 587.03 452.731C587.683 453.028 588.243 453.532 588.592 454.27C589.477 455.433 590.357 456.579 591.242 457.693C598.352 466.483 605.237 473.053 615.928 475.409C621.729 476.688 627.523 476.121 632.838 474.17C638.529 472.082 643.673 468.41 647.703 463.711C649.525 461.587 651.676 460.721 653.778 460.706C656.162 460.689 658.517 461.798 660.291 463.57C662.036 465.312 663.204 467.68 663.309 470.156C663.402 472.329 662.694 474.599 660.811 476.625C654.606 483.296 646.565 488.184 637.864 490.707ZM637.603 380.606C646.271 385.881 659.479 398.183 650.154 411.263C639.178 422.795 623.374 409.572 615.587 403.592C608.366 398.958 600.252 410.877 606.952 416.289C663.226 458.006 686.063 381.985 641.987 374.403C637.135 373.567 635.332 378.974 637.603 380.606ZM556.517 357.392C553.731 355.608 550.454 354.995 546.822 356.65C543.984 357.942 539.005 362.251 535.541 367.915C533.171 371.789 531.49 376.335 531.84 381.07C531.921 382.17 531.515 382.98 530.875 383.58C530.37 384.053 529.64 384.401 528.782 384.51C528.054 384.602 527.239 384.519 526.576 384.312C525.316 383.918 524.648 383.099 524.397 382.431C521.971 375.98 523.016 368.782 525.735 362.288C529.404 353.524 536.067 346.183 540.432 343.816C547.902 339.764 556.715 339.578 564.195 343.705C570.563 347.218 574.545 352.89 578.505 358.671C579.347 359.9 580.183 361.12 581.046 362.319C582.777 364.72 582.949 367.102 582.279 369.145C581.536 371.407 579.643 373.317 577.276 374.316C575.088 375.24 572.548 375.37 570.301 374.421C568.403 373.619 566.661 372.056 565.558 369.405C563.702 364.939 560.609 360.012 556.517 357.392V357.392ZM698.013 367.327C696.105 368.323 694.612 368.623 692.495 367.988C691.325 367.636 690.168 366.961 689.262 366.054C688.365 365.156 687.717 364.038 687.465 362.798C686.846 359.738 685.174 356.874 682.791 355.006C680.755 353.41 678.184 352.564 675.333 353.042C672.256 353.556 669.325 355.532 667.306 357.861C666.631 358.641 666.102 359.526 665.57 360.405C664.575 362.05 663.608 363.578 662.236 364.786C661.716 365.245 660.933 365.564 660.174 365.564C659.865 365.564 659.552 365.513 659.254 365.42C656.191 362.343 655.603 360.008 655.701 357.692C655.805 355.264 656.761 352.805 658.306 350.511C661.931 345.13 668.813 340.717 673.457 339.718C679.816 338.349 686.132 339.992 691.196 343.549C696.407 347.209 700.268 352.891 701.472 359.294C701.761 360.836 701.638 362.501 701.052 363.944C700.478 365.354 699.48 366.562 698.013 367.327ZM570.544 300.018C566.727 303.741 562.21 304.318 557.64 304.831C555.1 305.118 553.073 305.35 551.079 305.801C545.596 307.04 540.176 308.907 535.232 311.595C530.063 314.405 524.431 317.793 520.379 322.135C519.415 323.168 518.507 324.252 517.597 325.338C516.768 326.329 515.969 327.283 515.127 328.202C514.16 329.258 513.241 330.365 512.328 331.469C511.763 332.401 511.652 332.63 511.538 332.869C511.367 333.227 511.168 333.628 510.94 334.059C510.629 334.648 510.264 335.293 509.882 335.878C509.246 336.947 508.905 337.242 508.611 337.373C508.122 337.591 507.658 337.699 507.208 337.641C506.786 337.586 506.388 337.383 505.996 337.051C504.036 335.393 503.458 332.673 503.518 329.785C503.608 325.403 505.222 320.551 506.71 317.568C510.17 310.638 514.969 303.433 520.739 298.26C527.323 292.356 534.527 287.886 542.801 284.806C547.943 282.891 553.896 281.134 559.498 281.356C563.53 281.516 567.379 282.716 570.558 285.713C572.51 287.553 573.447 290.17 573.447 292.785C573.447 295.452 572.474 298.135 570.544 300.018ZM705.775 334.114C705.532 334.512 705.196 334.787 704.822 334.952C704.43 335.124 703.993 335.174 703.573 335.103C703.155 335.033 702.758 334.843 702.443 334.553C702.141 334.275 701.911 333.907 701.808 333.455C699.274 322.311 694.354 314.02 683.852 308.674C678.686 306.043 672.745 304.372 667.122 303.04C665.487 302.653 663.761 302.402 662.022 302.147C656.572 301.351 651.082 300.438 647.529 296.027C645.389 293.37 644.49 289.972 644.998 286.864C645.476 283.938 647.184 281.255 650.288 279.647C658.016 275.646 667.62 279.572 675.424 282.917C676.003 283.165 676.571 283.408 677.128 283.643C684.759 286.869 691.72 291.127 697.442 297.216C701.982 302.047 706.188 309.188 707.882 316.534C709.292 322.646 708.96 328.886 705.775 334.114Z" fill="black"/>
<path fill-rule="evenodd" clip-rule="evenodd" d="M681.857 427.104C665.756 424.386 649.029 428.404 633.505 432.685C608.845 416.473 576.891 432.837 559.23 453.092C553.186 458.077 540.492 464.697 547.18 474.207C544.645 480.929 543.967 484.093 549.213 476.234C578.908 479.657 610.767 473.191 640.154 467.092C650.16 470.461 658.997 478.338 669.996 475.64C680.396 477.854 691.655 479.921 701.044 473.241C708.193 472.951 724.098 485.805 723.842 470.856C721.63 456.527 693.257 432.685 681.857 427.104Z" fill="#62442E"/>
<path fill-rule="evenodd" clip-rule="evenodd" d="M693.93 473.106C676.45 475.043 658.723 472.197 644.087 462.034C642.559 460.973 641.053 460.985 639.824 461.607C638.331 461.441 636.803 462.038 635.917 463.746C632.242 470.834 620.059 469.255 613.362 469.399C591.457 469.822 568.787 468.612 547.707 475.243C567.868 435.78 595.751 418.744 638.897 434.236C635.001 437.378 654.442 430.024 656.147 429.884C685.999 422.394 710.627 447.465 722.658 472.307C713.557 470.139 703.358 472.061 693.93 473.106M735.626 479.822C722.463 450.135 696.509 417.492 660.308 422.623C652.876 423.718 645.058 428.802 637.575 427.885C615.908 419.873 598.024 415.802 576.326 428.757C567.12 429.446 515.313 493.67 539.932 488.426C570.151 471.05 622.694 487.417 641.46 471.875C678.302 496.092 708.257 469.786 729.02 484.923C732.63 488.239 737.693 484.109 735.626 479.822" fill="black"/>
<path fill-rule="evenodd" clip-rule="evenodd" d="M700.731 295.129C727.675 295.129 743.05 300.931 748.684 301.382L748.854 301.395C751.197 301.545 753.3 301.741 755.505 302.595C763.616 305.723 764.937 314.24 760.204 319.608C759.872 330.715 761.331 343.693 758.828 354.836C755.74 401.813 733.676 409.74 721.135 412.634C714.838 414.087 707.376 414.665 700.688 413.131C689.278 412.705 677.998 409.129 668.347 402.901C654.906 394.221 644.923 380.879 641.684 365.046C640.148 357.498 639.431 349.643 640.266 341.971L640.39 340.914C636.021 338.822 630.958 338.426 625.74 338.241C623.247 338.152 620.789 338.073 618.402 338.179C616.069 338.44 613.763 338.787 611.451 339.26C608.926 340.023 606.541 341.282 604.339 343.277L604.187 346.187C603.774 353.458 602.82 360.751 601.35 367.885C599.178 378.41 595.686 388.463 588.253 395.929C585.738 399.691 582.624 403.05 578.845 405.958C565.116 416.543 546.463 420.429 529.344 418.965C494.589 415.996 474.501 388.37 469.871 376.563L469.594 375.847C466.25 367.069 463.585 355.679 453.017 353.793L450.77 353.389C445.947 352.482 441.497 351.22 438.67 346.509C437.43 344.453 436.793 342.152 436.637 339.807C434.987 339.934 433.34 340.055 431.698 340.173C418.602 342.946 340.055 345.297 333.786 345.297C333.786 345.297 321.734 350.377 316.646 346.441C313.119 343.705 311.959 340.058 313.9 335.926C316.83 329.709 330.344 325.97 336.345 324.786C336.345 324.786 433.186 325.591 440.156 324.268C444.469 319.816 452.183 320.425 458.629 319.721C463.965 315.911 471.43 313.359 477.327 311.651C478.528 311.195 479.718 310.755 480.875 310.339C491.685 306.484 502.922 304.443 514.329 303.346C526.093 302.227 537.891 302.733 549.585 304.338C554.514 305.007 559.396 305.873 564.244 307.005C572.924 308.151 581.554 310.038 590.238 312.277L591.976 312.729C601.12 315.13 610.517 317.206 619.983 315.579C627.689 314.263 635.1 311.293 642.206 308.082L643.131 307.662C658.755 300.519 683.154 295.129 700.731 295.129ZM563.304 321.246C557.54 319.976 555.078 328.875 560.861 330.148C564.956 331.05 568.426 333.118 570.771 336.621L571.018 337.002C574.165 342.015 582.121 337.387 578.953 332.341C575.388 326.663 569.849 322.686 563.304 321.246ZM732.142 315.728C730.11 314.294 727.035 315.358 725.855 317.384C724.557 319.614 725.408 322.098 727.311 323.557L727.505 323.699C729.251 324.931 730.951 327.14 731.164 329.403L731.183 329.686C731.412 335.607 740.603 335.637 740.374 329.686C740.15 323.863 736.782 318.998 732.142 315.728Z" fill="black"/>
</svg>
